<svg width="57" height="57" viewBox="0 0 57 57" fill="none" xmlns="http://www.w3.org/2000/svg">
<path opacity="0.08" fill-rule="evenodd" clip-rule="evenodd" d="M53 0C55.2091 0 57 1.79086 57 4L57 53C57 55.2091 55.2091 57 53 57L4 57C1.79086 57 0 55.2091 0 53L0 4C0 1.79086 1.79086 0 4 0L53 0Z" fill="#1159DA"/>
<rect opacity="0.01" x="10.26" y="10.26" width="36.48" height="36.48" fill="#1159DA"/>
<path fill-rule="evenodd" clip-rule="evenodd" d="M33.6323 10.26C35.3048 10.26 36.6715 11.6124 36.7638 13.3164L36.7688 13.5002V23.4084C36.7688 25.6723 35.9163 27.7305 34.5249 29.2591C39.4766 31.528 42.9504 36.5132 43.0877 42.3334L43.092 42.6917V44.4201C43.092 45.7014 42.0672 46.74 40.803 46.74H16.1969C14.9328 46.74 13.908 45.7014 13.908 44.4201V42.6917C13.908 36.7187 17.4217 31.575 22.4741 29.2568C21.1356 27.7866 20.2965 25.8265 20.2348 23.6648L20.2312 23.4084V13.5002C20.2312 11.7724 21.5402 10.3605 23.1896 10.2651L23.3676 10.26H33.6323ZM33.0746 30.5248L33.0024 30.5746C31.7069 31.4451 30.1606 31.9508 28.5 31.9508C26.8087 31.9508 25.2361 31.4263 23.9261 30.5261C19.1713 32.3511 15.7646 36.9427 15.6289 42.3559L15.6247 42.6917V43.8451C15.6247 44.4857 16.1371 45.005 16.7691 45.005H40.2308C40.8629 45.005 41.3753 44.4857 41.3753 43.8451V42.6917C41.3753 37.2404 38.0583 32.572 33.3529 30.6355L33.0746 30.5248ZM28.5 34.9087C28.9029 34.9087 29.2296 35.2397 29.2296 35.6481V38.112L31.6616 38.113C32.0645 38.113 32.3912 38.444 32.3912 38.8524C32.3912 39.2608 32.0645 39.5919 31.6616 39.5919H29.2296V42.0568C29.2296 42.4652 28.9029 42.7962 28.5 42.7962C28.097 42.7962 27.7704 42.4652 27.7704 42.0568V39.5919H25.3384C24.9354 39.5919 24.6088 39.2608 24.6088 38.8524C24.6088 38.444 24.9354 38.113 25.3384 38.113H27.7704V35.6481C27.7704 35.2397 28.097 34.9087 28.5 34.9087ZM35.3096 19.6265H21.6904V23.4084C21.6904 27.3157 24.7454 30.4719 28.5 30.4719C32.1779 30.4719 35.1846 27.4432 35.3058 23.6467L35.3096 23.4084V19.6265ZM33.6323 11.7389H23.3676C22.4936 11.7389 21.7665 12.445 21.696 13.3549L21.6904 13.5002V18.1476H35.3096V13.5002C35.3096 12.5702 34.6261 11.8177 33.769 11.7447L33.6323 11.7389ZM28.5486 12.4784C29.6377 12.4784 30.5596 13.204 30.8694 14.2042L32.6344 14.2038C33.0373 14.2038 33.364 14.5349 33.364 14.9433C33.364 15.3516 33.0373 15.6827 32.6344 15.6827L30.8691 15.6833C30.559 16.683 29.6374 17.4081 28.5486 17.4081C27.4598 17.4081 26.5382 16.683 26.2281 15.6833L24.4628 15.6827C24.0599 15.6827 23.7332 15.3516 23.7332 14.9433C23.7332 14.5689 24.0077 14.2595 24.3638 14.2105L24.4628 14.2038L26.2278 14.2042C26.5376 13.204 27.4595 12.4784 28.5486 12.4784ZM28.5486 13.9573C28.0113 13.9573 27.5758 14.3987 27.5758 14.9433C27.5758 15.4878 28.0113 15.9292 28.5486 15.9292C29.0859 15.9292 29.5214 15.4878 29.5214 14.9433C29.5214 14.3987 29.0859 13.9573 28.5486 13.9573Z" fill="#1159DA"/>
</svg>
