<svg width="64" height="64" viewBox="0 0 64 64" fill="none" xmlns="http://www.w3.org/2000/svg">
<path d="M32 64C49.6731 64 64 49.6731 64 32C64 14.3269 49.6731 0 32 0C14.3269 0 0 14.3269 0 32C0 49.6731 14.3269 64 32 64Z" fill="white"/>
<path d="M34.9349 32.0013L26.7419 23.0803C26.4058 22.7408 26.2173 22.2824 26.2173 21.8048C26.2173 21.3271 26.4058 20.8687 26.7419 20.5293C26.9069 20.3616 27.1037 20.2285 27.3207 20.1377C27.5377 20.0468 27.7706 20 28.0059 20C28.2411 20 28.474 20.0468 28.691 20.1377C28.908 20.2285 29.1048 20.3616 29.2699 20.5293L39.2589 30.7233C39.5946 31.0635 39.7829 31.5223 39.7829 32.0003C39.7829 32.4783 39.5946 32.937 39.2589 33.2773L29.2689 43.4713C29.1038 43.6389 28.907 43.772 28.69 43.8629C28.473 43.9537 28.2401 44.0005 28.0049 44.0005C27.7696 44.0005 27.5367 43.9537 27.3197 43.8629C27.1027 43.772 26.9059 43.6389 26.7409 43.4713C26.4048 43.1318 26.2163 42.6734 26.2163 42.1958C26.2163 41.7181 26.4048 41.2597 26.7409 40.9203L34.9349 32.0013Z" fill="#1E90FF"/>
</svg>
