<svg width="375" height="289" viewBox="0 0 375 289" fill="none" xmlns="http://www.w3.org/2000/svg">
<g clip-path="url(#clip0_1557_10054)">
<path d="M62.9999 56.444V79.2821C62.9999 83.4016 66.3244 86.7984 70.5162 86.7984H152.328C156.448 86.7984 159.845 83.4739 159.845 79.2821V59.9854L170.035 49.2891L70.5162 49C66.3967 49 62.9999 52.3245 62.9999 56.444Z" fill="#DBE5FF"/>
<path d="M147.775 62.804L73.4795 62.4426V60.2021L147.775 60.5635V62.804Z" fill="#6995FF"/>
<path d="M147.775 70.3201L73.4795 69.9587V67.7183L147.775 68.0796V70.3201Z" fill="#6995FF"/>
<path d="M118.366 75.2351L147.781 75.3799L147.769 77.6926L118.354 77.5478L118.366 75.2351Z" fill="#6995FF"/>
<path d="M330.565 185.217V211.896C330.565 216.708 326.681 220.676 321.784 220.676H226.214C221.402 220.676 217.434 216.793 217.434 211.896V189.354L205.53 176.859L321.784 176.521C326.681 176.521 330.565 180.405 330.565 185.217Z" fill="#DBE5FF"/>
<path d="M231.533 192.647L318.323 192.309V189.607L231.533 190.03V192.647Z" fill="#6995FF"/>
<path d="M231.533 201.427L318.323 201.089V198.388L231.533 198.81V201.427Z" fill="#6995FF"/>
<path d="M265.891 207.17L231.529 207.339L231.542 210.041L265.904 209.872L265.891 207.17Z" fill="#6995FF"/>
<path d="M248.671 317.683C234.403 303.752 234.15 282.224 237.865 263.481C238.456 260.357 238.709 256.98 240.651 254.447C242.593 251.915 246.392 250.648 249.009 252.421C251.12 253.941 251.711 256.811 252.64 259.26C253.906 262.552 256.101 265.423 258.887 267.533C260.744 268.884 263.108 269.897 265.219 269.138C268.174 268.124 269.103 264.41 269.609 261.286C270.538 255.461 271.467 249.635 272.395 243.81C272.902 240.686 273.408 237.478 274.844 234.692C276.279 231.906 278.896 229.457 282.02 229.12C285.144 228.782 288.521 231.061 288.69 234.27C288.774 235.62 288.267 236.887 288.183 238.153C288.099 239.504 288.436 241.024 289.618 241.53C290.8 242.121 292.235 241.446 293.249 240.686C296.963 238.069 299.834 234.354 302.535 230.639C305.237 226.924 307.939 223.125 311.4 220.17C314.862 217.215 319.421 215.105 323.895 215.611C328.37 216.118 332.76 219.664 333.098 224.223C333.52 228.782 330.227 232.834 326.85 235.958C321.869 240.602 316.128 244.401 310.049 247.44C308.952 247.947 307.77 248.538 307.179 249.635C306.166 251.577 307.77 254.025 309.712 255.038C311.907 256.22 314.44 256.389 316.888 257.065C319.252 257.74 321.7 259.26 322.291 261.708C323.051 265.085 319.843 268.04 316.803 269.813C310.809 273.359 304.224 275.807 297.47 277.158C295.022 277.665 292.489 278.002 290.378 279.269C288.267 280.62 286.663 283.237 287.423 285.601C288.183 287.965 290.969 289.147 293.417 289.147C295.866 289.062 298.23 288.134 300.678 287.627C305.237 286.698 310.725 287.88 312.835 292.102C314.271 294.803 313.849 298.265 312.498 301.051C311.147 303.837 308.867 306.032 306.503 307.974C298.314 314.897 288.436 319.962 277.883 321.82C267.33 323.508 257.958 322.917 248.671 317.683Z" fill="#E8505B"/>
<path d="M246.139 331.613C248.08 324.268 251.12 315.741 255.426 306.707C259.731 297.674 265.303 288.134 271.467 278.425C272.986 275.976 274.506 273.612 276.026 271.248C277.545 268.884 279.065 266.521 280.669 264.325C283.877 259.935 287.254 255.883 290.631 252.252C294.008 248.538 297.301 245.161 300.425 242.037C303.549 238.913 306.503 236.043 309.374 233.51C315.031 228.444 320.012 224.983 323.558 222.703C325.331 221.521 326.766 220.761 327.694 220.17C328.117 219.917 328.539 219.664 328.792 219.58C329.045 219.411 329.13 219.411 329.214 219.411C329.214 219.411 329.13 219.495 328.876 219.664C328.623 219.833 328.285 220.086 327.779 220.339C326.85 220.93 325.499 221.775 323.726 222.957C320.265 225.32 315.284 228.866 309.712 233.848C306.926 236.38 303.971 239.251 300.847 242.375C297.723 245.498 294.431 248.96 291.138 252.59C287.761 256.305 284.384 260.273 281.26 264.663C279.656 266.858 278.221 269.138 276.701 271.586C275.181 273.95 273.662 276.398 272.142 278.762C265.979 288.471 260.407 298.011 256.101 306.961C251.711 315.994 248.671 324.437 246.73 331.782" fill="#263238"/>
<path d="M280.838 264.241C280.838 264.241 280.753 263.734 280.753 262.89C280.753 261.961 280.753 260.695 280.753 259.091C280.838 255.883 281.091 251.493 281.344 246.68C281.598 241.868 281.851 237.478 281.851 234.27C281.851 232.666 281.851 231.399 281.851 230.47C281.851 229.542 281.851 229.12 281.935 229.12C281.935 229.12 282.02 229.626 282.104 230.47C282.189 231.399 282.273 232.666 282.273 234.27C282.358 237.478 282.273 241.868 281.935 246.68C281.682 251.493 281.344 255.798 281.176 259.091C281.091 260.611 281.007 261.877 281.007 262.89C280.922 263.734 280.922 264.241 280.838 264.241Z" fill="#263238"/>
<path d="M322.207 263.312C322.207 263.312 321.616 263.312 320.603 263.228C319.59 263.143 318.07 263.059 316.213 262.975C312.498 262.806 307.263 262.637 301.607 262.806C295.866 262.975 290.716 263.312 287.001 263.65C285.144 263.819 283.624 263.988 282.611 264.072C281.598 264.156 281.007 264.241 281.007 264.241C281.007 264.241 281.598 264.072 282.611 263.903C283.624 263.734 285.144 263.481 287.001 263.228C290.716 262.721 295.95 262.299 301.691 262.215C307.432 262.046 312.667 262.215 316.381 262.552C318.239 262.721 319.758 262.89 320.772 263.059C321.7 263.143 322.207 263.312 322.207 263.312Z" fill="#263238"/>
<path d="M256.016 306.032C256.016 306.032 255.932 305.863 255.848 305.525C255.763 305.103 255.594 304.597 255.425 303.921C255.003 302.571 254.497 300.544 253.906 298.096C252.724 293.199 251.289 286.361 249.853 278.762C248.418 271.164 247.067 264.325 245.97 259.429C245.463 257.065 245.041 255.039 244.703 253.603C244.535 252.928 244.45 252.421 244.366 251.999C244.281 251.661 244.281 251.408 244.281 251.408C244.281 251.408 244.366 251.577 244.45 251.915C244.535 252.337 244.703 252.843 244.872 253.519C245.294 254.87 245.801 256.896 246.392 259.344C247.574 264.241 249.009 271.08 250.444 278.678C251.88 286.276 253.23 293.115 254.328 298.011C254.835 300.375 255.257 302.402 255.594 303.837C255.763 304.512 255.848 305.019 255.932 305.441C256.016 305.779 256.101 306.032 256.016 306.032Z" fill="#263238"/>
<path d="M103.045 178.547C115.553 166.335 115.775 147.462 112.519 131.031C112 128.293 111.778 125.332 110.076 123.112C108.374 120.891 105.043 119.781 102.749 121.336C100.898 122.668 100.38 125.184 99.5663 127.331C98.4561 130.217 96.5318 132.734 94.0893 134.584C92.461 135.768 90.3887 136.656 88.5384 135.99C85.9479 135.102 85.1338 131.845 84.6897 129.107C83.8755 124 83.0614 118.893 82.2473 113.786C81.8032 111.048 81.3591 108.235 80.1009 105.793C78.8427 103.35 76.5483 101.204 73.8098 100.908C71.0713 100.612 68.1108 102.61 67.9628 105.423C67.8888 106.607 68.3328 107.717 68.4069 108.827C68.4809 110.012 68.1848 111.344 67.1487 111.788C66.1125 112.306 64.8542 111.714 63.9661 111.048C60.7095 108.753 58.1931 105.497 55.8247 102.24C53.4563 98.9837 51.0878 95.6531 48.0533 93.0626C45.0188 90.4722 41.0221 88.6219 37.0994 89.0659C33.1767 89.51 29.3281 92.6186 29.032 96.6153C28.662 100.612 31.5485 104.165 34.509 106.903C38.8757 110.974 43.9086 114.304 49.2375 116.969C50.1997 117.413 51.2359 117.931 51.754 118.893C52.6421 120.595 51.2359 122.742 49.5336 123.63C47.6092 124.666 45.3889 124.814 43.2425 125.406C41.1701 125.998 39.0238 127.331 38.5057 129.477C37.8396 132.437 40.652 135.028 43.3165 136.582C48.5714 139.691 54.3444 141.837 60.2654 143.021C62.4118 143.465 64.6322 143.761 66.4825 144.872C68.3328 146.056 69.7391 148.35 69.073 150.423C68.4069 152.495 65.9644 153.531 63.8181 153.531C61.6717 153.457 59.5993 152.643 57.453 152.199C53.4563 151.385 48.6454 152.421 46.7951 156.122C45.5369 158.49 45.907 161.525 47.0912 163.967C48.2754 166.409 50.2737 168.334 52.3461 170.036C59.5253 176.105 68.1848 180.546 77.4364 182.174C86.688 183.654 94.9035 183.136 103.045 178.547Z" fill="#E8505B"/>
<path d="M105.265 190.76C103.563 184.32 100.899 176.845 97.124 168.926C93.3493 161.006 88.4645 152.643 83.0615 144.131C81.7293 141.985 80.397 139.913 79.0648 137.84C77.7326 135.768 76.4003 133.696 74.9941 131.771C72.1816 127.923 69.2211 124.37 66.2606 121.187C63.3001 117.931 60.4136 114.97 57.6751 112.232C54.9366 109.493 52.3462 106.977 49.8297 104.757C44.8709 100.316 40.5041 97.2813 37.3956 95.283C35.8413 94.2468 34.5831 93.5807 33.769 93.0626C33.3989 92.8406 33.0288 92.6185 32.8068 92.5445C32.5847 92.3965 32.5107 92.3965 32.4367 92.3965C32.4367 92.3965 32.5107 92.4705 32.7328 92.6185C32.9548 92.7666 33.2509 92.9886 33.6949 93.2106C34.5091 93.7287 35.6933 94.4689 37.2475 95.505C40.2821 97.5774 44.6488 100.686 49.5337 105.053C51.9761 107.273 54.5666 109.79 57.305 112.528C60.0435 115.266 62.93 118.301 65.8165 121.484C68.777 124.74 71.7375 128.219 74.476 132.067C75.8823 133.992 77.1405 135.99 78.4727 138.136C79.8049 140.209 81.1372 142.355 82.4694 144.428C87.8723 152.939 92.7572 161.302 96.5318 169.148C100.381 177.067 103.045 184.468 104.747 190.908" fill="#263238"/>
<path d="M74.8459 131.698C74.8459 131.698 74.9199 131.253 74.9199 130.513C74.9199 129.699 74.9199 128.589 74.9199 127.183C74.8459 124.37 74.6239 120.522 74.4018 116.303C74.1798 112.084 73.9577 108.235 73.9577 105.423C73.9577 104.017 73.9577 102.907 73.9577 102.092C73.9577 101.278 73.9577 100.908 73.8837 100.908C73.8837 100.908 73.8097 101.352 73.7357 102.092C73.6617 102.907 73.5877 104.017 73.5877 105.423C73.5137 108.235 73.5877 112.084 73.8837 116.303C74.1058 120.522 74.4018 124.296 74.5499 127.183C74.6239 128.515 74.6979 129.625 74.6979 130.513C74.7719 131.253 74.7719 131.698 74.8459 131.698Z" fill="#263238"/>
<path d="M38.5795 130.883C38.5795 130.883 39.0976 130.883 39.9857 130.809C40.8739 130.735 42.2061 130.661 43.8344 130.587C47.091 130.439 51.6798 130.291 56.6386 130.439C61.6715 130.587 66.1863 130.883 69.4428 131.179C71.0711 131.327 72.4034 131.475 73.2915 131.549C74.1797 131.623 74.6978 131.697 74.6978 131.697C74.6978 131.697 74.1797 131.549 73.2915 131.401C72.4034 131.253 71.0711 131.031 69.4428 130.809C66.1863 130.365 61.5975 129.995 56.5646 129.921C51.5317 129.773 46.9429 129.921 43.6864 130.217C42.0581 130.365 40.7258 130.513 39.8377 130.661C39.0235 130.735 38.5795 130.883 38.5795 130.883Z" fill="#263238"/>
<path d="M96.6058 168.334C96.6058 168.334 96.6798 168.186 96.7538 167.89C96.8278 167.519 96.9758 167.075 97.1239 166.483C97.4939 165.299 97.938 163.523 98.4561 161.376C99.4923 157.084 100.75 151.089 102.009 144.427C103.267 137.766 104.451 131.771 105.413 127.478C105.857 125.406 106.227 123.63 106.523 122.372C106.672 121.78 106.746 121.335 106.82 120.965C106.894 120.669 106.894 120.447 106.894 120.447C106.894 120.447 106.82 120.595 106.746 120.891C106.672 121.261 106.524 121.705 106.375 122.298C106.005 123.482 105.561 125.258 105.043 127.404C104.007 131.697 102.749 137.692 101.491 144.353C100.232 151.015 99.0482 157.01 98.086 161.302C97.642 163.375 97.2719 165.151 96.9758 166.409C96.8278 167.001 96.7538 167.445 96.6798 167.815C96.6058 168.112 96.5318 168.334 96.6058 168.334Z" fill="#263238"/>
<path d="M47.3131 160.932C47.3131 160.932 47.4612 161.006 47.8312 161.08C48.2013 161.155 48.7194 161.229 49.2375 161.303C50.5697 161.525 52.346 161.747 54.4924 162.117C58.9332 162.783 65.0762 163.819 71.8854 164.929C78.6946 166.039 84.8377 167.002 89.2784 167.594C91.4988 167.89 93.3491 168.112 94.6074 168.26C95.1995 168.334 95.6435 168.334 96.0876 168.408C96.3837 168.408 96.6057 168.408 96.6057 168.408C96.6057 168.408 96.4577 168.334 96.0876 168.26C95.7175 168.186 95.1995 168.112 94.6814 168.038C93.3491 167.816 91.5728 167.594 89.4265 167.224C84.9857 166.557 78.8426 165.521 72.0334 164.411C65.2243 163.301 59.0812 162.339 54.6404 161.747C52.42 161.451 50.5697 161.229 49.3115 161.08C48.7194 161.006 48.2753 161.006 47.8312 160.932C47.5352 160.858 47.3131 160.858 47.3131 160.932Z" fill="#263238"/>
<path d="M228.493 349.849L130.981 349.427C119.246 349.342 109.79 339.802 109.875 328.067L110.888 83.5684C110.972 71.8332 120.512 62.3774 132.248 62.3774L229.76 62.7996C241.495 62.884 250.951 72.4242 250.866 84.1594L249.853 328.658C249.769 340.393 240.229 349.849 228.493 349.849Z" fill="#263238"/>
<path d="M229.591 71.3264L210.679 71.242C208.147 71.242 206.12 73.3527 206.036 76.0543V79.5158C206.036 82.133 203.925 84.3281 201.392 84.3281L164.498 84.1592C161.965 84.1592 159.939 81.9641 159.939 79.3469V75.8854C159.939 73.2682 157.913 71.0731 155.38 71.0731H148.71L132.247 70.9043C124.058 70.9043 117.304 77.4895 117.304 85.6789L116.291 324.267C116.291 332.457 122.876 339.211 131.065 339.211L228.409 339.633C236.598 339.633 243.352 333.048 243.352 324.858L244.365 86.2699C244.45 78.0805 237.78 71.3264 229.591 71.3264Z" fill="#FAFAFA"/>
<path d="M146.431 166.812C148.035 167.065 243.69 185.807 243.69 185.807V166.812H146.431Z" fill="#EBEBEB"/>
<path d="M336.137 94.2051H145.84C141.703 94.2051 138.411 97.4977 138.411 101.635V160.649C138.411 164.785 141.703 168.078 145.84 168.078H160.024C161.206 174.241 162.472 182.008 162.472 182.008L175.305 168.078H336.137C340.274 168.078 343.566 164.785 343.566 160.649V101.635C343.566 97.5821 340.274 94.2051 336.137 94.2051Z" fill="#598AFF"/>
<path d="M257.621 126.287C257.621 126.372 234.994 126.541 207.049 126.541C179.104 126.541 156.478 126.456 156.478 126.287C156.478 126.203 179.104 126.034 207.049 126.034C234.91 126.034 257.621 126.119 257.621 126.287Z" fill="#F5F5F5"/>
<path d="M257.62 117.169C257.62 117.254 234.994 117.423 207.049 117.423C179.104 117.423 156.478 117.338 156.478 117.169C156.478 117.085 179.104 116.916 207.049 116.916C234.91 117 257.62 117.085 257.62 117.169Z" fill="#F5F5F5"/>
<path d="M257.621 135.237C257.621 135.321 234.994 135.49 207.049 135.49C179.104 135.49 156.478 135.406 156.478 135.237C156.478 135.152 179.104 134.983 207.049 134.983C234.91 134.983 257.621 135.068 257.621 135.237Z" fill="#F5F5F5"/>
<path d="M189.573 144.777C207.898 144.777 222.753 144.663 222.753 144.523C222.753 144.383 207.898 144.27 189.573 144.27C171.249 144.27 156.394 144.383 156.394 144.523C156.394 144.663 171.249 144.777 189.573 144.777Z" fill="#F5F5F5"/>
<path d="M250.106 186.922H58.2056C55.3351 186.922 52.9712 189.286 52.9712 192.156V254.632C52.9712 257.502 55.3351 259.866 58.2056 259.866H197.593L210.257 273.628C210.257 273.628 211.608 265.86 212.706 259.866H250.106C252.977 259.866 255.341 257.502 255.341 254.632V192.156C255.341 189.201 252.977 186.922 250.106 186.922Z" fill="#7DCFFD"/>
<path d="M242.592 219.088C242.592 219.173 219.966 219.342 192.021 219.342C164.076 219.342 141.45 219.257 141.45 219.088C141.45 219.004 164.076 218.835 192.021 218.835C219.966 218.835 242.592 219.004 242.592 219.088Z" fill="#F5F5F5"/>
<path d="M242.592 210.055C242.592 210.139 219.966 210.308 192.021 210.308C164.075 210.308 141.449 210.223 141.449 210.055C141.449 209.886 164.075 209.801 192.021 209.801C219.966 209.801 242.592 209.886 242.592 210.055Z" fill="#F5F5F5"/>
<path d="M242.592 228.037C242.592 228.122 219.966 228.291 192.021 228.291C164.076 228.291 141.45 228.206 141.45 228.037C141.45 227.869 164.076 227.784 192.021 227.784C219.966 227.869 242.592 227.953 242.592 228.037Z" fill="#F5F5F5"/>
<path d="M174.545 237.577C192.869 237.577 207.724 237.464 207.724 237.324C207.724 237.184 192.869 237.071 174.545 237.071C156.22 237.071 141.365 237.184 141.365 237.324C141.365 237.464 156.22 237.577 174.545 237.577Z" fill="#F5F5F5"/>
<path d="M288.267 69.215C288.352 67.6953 287.001 65.5002 285.734 64.3182C284.468 63.0518 283.624 61.4477 284.299 58.915C284.806 56.9732 286.072 57.142 286.494 56.0445C286.832 55.2002 286.663 54.2715 286.748 53.3428C287.001 50.2191 290.378 47.7707 293.417 48.615C294.262 45.66 297.048 43.3805 300.087 43.0428C303.126 42.7051 306.334 44.3936 307.77 47.0953C309.543 46.1666 311.738 46.251 313.426 47.1797C315.115 48.1084 316.297 49.9658 316.466 51.9076C318.154 50.6412 320.771 51.1477 322.122 52.7518C323.473 54.3559 323.557 56.8043 322.544 58.6617C321.531 60.5191 319.505 61.701 317.479 62.0387C315.368 62.3764 313.257 61.8699 311.4 60.9412C309.543 60.0125 307.854 58.6617 306.419 57.142" fill="#263238"/>
<path d="M302.113 166.221C322.303 166.221 338.67 150.232 338.67 130.508C338.67 110.785 322.303 94.7959 302.113 94.7959C281.924 94.7959 265.557 110.785 265.557 130.508C265.557 150.232 281.924 166.221 302.113 166.221Z" fill="#E0E0E0"/>
<path d="M338.754 130.508L334.702 120.124L320.18 129.242L333.098 149.167C333.182 149.167 338.416 142.413 338.754 130.508Z" fill="#EB996E"/>
<path d="M298.736 108.051C303.971 108.051 308.277 103.998 308.53 98.8484C308.783 94.5427 308.952 90.4058 308.952 90.4058C308.952 90.4058 316.888 89.8148 317.648 82.0476C318.408 74.2804 318.492 56.2132 318.492 56.2132C309.712 51.5697 299.074 52.0763 290.716 57.3952L289.956 57.9017L289.027 98.2575C288.943 103.661 293.333 108.051 298.736 108.051Z" fill="#FFBE9D"/>
<path d="M303.38 68.2862C303.971 68.4551 304.309 69.1305 304.14 69.7215C303.971 70.3125 303.295 70.6502 302.704 70.4813C302.113 70.3125 301.776 69.6371 301.945 69.0461C302.113 68.3707 302.704 68.033 303.38 68.2862Z" fill="#263238"/>
<path d="M305.49 68.6238C305.321 68.7927 304.646 68.1173 303.548 68.0328C302.451 67.9484 301.607 68.455 301.522 68.2861C301.438 68.2017 301.607 67.9484 301.944 67.7796C302.282 67.5263 302.873 67.3574 303.548 67.3574C304.224 67.4418 304.815 67.6951 305.068 67.9484C305.49 68.3705 305.575 68.6238 305.49 68.6238Z" fill="#263238"/>
<path d="M315.199 68.2862C315.79 68.4551 316.128 69.1305 315.959 69.7215C315.79 70.3125 315.115 70.6502 314.524 70.4813C313.933 70.3125 313.595 69.6371 313.764 69.0461C314.017 68.3707 314.608 68.033 315.199 68.2862Z" fill="#263238"/>
<path d="M317.563 68.7083C317.394 68.8771 316.719 68.2017 315.621 68.1173C314.524 68.0329 313.68 68.5394 313.595 68.3706C313.511 68.2862 313.68 68.0329 314.017 67.864C314.355 67.6107 314.946 67.4419 315.621 67.4419C316.297 67.5263 316.888 67.7796 317.141 68.0329C317.563 68.3706 317.648 68.6239 317.563 68.7083Z" fill="#263238"/>
<path d="M309.374 77.0666C309.374 76.9822 310.049 76.8978 311.147 76.8133C311.4 76.8133 311.653 76.7289 311.653 76.6445C311.738 76.4756 311.653 76.1379 311.484 75.8002C311.231 75.0404 311.062 74.365 310.809 73.5207C309.88 70.3125 309.289 67.6953 309.458 67.6109C309.627 67.5264 310.471 70.1437 311.4 73.3519C311.653 74.1117 311.822 74.8715 311.991 75.6314C312.075 75.9691 312.244 76.3912 312.075 76.8133C311.991 77.0666 311.738 77.151 311.569 77.2355C311.4 77.2355 311.231 77.2355 311.062 77.2355C310.049 77.2355 309.374 77.151 309.374 77.0666Z" fill="#263238"/>
<path d="M308.952 90.3212C308.952 90.3212 303.971 90.3212 298.905 86.6064C298.905 86.6064 300.847 92.4319 308.783 92.3474L308.952 90.3212Z" fill="#EB996E"/>
<path d="M289.703 69.3835C289.703 68.7925 289.196 68.2015 288.605 68.2015C287.17 68.1171 284.721 68.6237 284.384 72.6761C283.962 78.4171 289.534 77.0663 289.618 76.8974C289.618 76.813 289.703 71.663 289.703 69.3835Z" fill="#FFBE9D"/>
<path d="M288.352 74.6177C288.352 74.6177 288.267 74.7021 288.098 74.7865C287.93 74.8709 287.676 74.8709 287.339 74.7865C286.748 74.5332 286.326 73.5201 286.326 72.507C286.326 72.0004 286.494 71.4939 286.748 71.0718C286.917 70.6496 287.254 70.3963 287.592 70.3963C287.93 70.3119 288.098 70.5652 288.183 70.7341C288.267 70.9029 288.183 70.9873 288.267 70.9873C288.267 70.9873 288.436 70.9029 288.352 70.6496C288.352 70.5652 288.267 70.3963 288.183 70.3119C288.014 70.2275 287.845 70.1431 287.676 70.1431C287.254 70.1431 286.832 70.4808 286.579 70.9873C286.326 71.4095 286.157 72.0004 286.072 72.5914C285.988 73.7734 286.579 74.8709 287.339 75.2086C287.761 75.3775 288.098 75.2086 288.267 75.1242C288.352 74.7865 288.436 74.6177 288.352 74.6177Z" fill="#EB996E"/>
<path d="M300.425 65.5846C300.678 65.9223 301.691 65.7535 303.042 65.7535C304.308 65.6691 305.321 65.6691 305.575 65.3314C305.828 64.9092 304.562 63.9805 302.957 64.065C301.184 64.1494 300.087 65.2469 300.425 65.5846Z" fill="#263238"/>
<path d="M313.004 65.247C313.173 65.7536 314.102 65.9224 315.199 65.9224C316.297 65.9224 317.226 65.7536 317.31 65.247C317.479 64.7405 316.466 64.0651 315.115 64.0651C313.849 63.9806 312.835 64.7405 313.004 65.247Z" fill="#263238"/>
<path d="M319.59 58.7461C319.59 58.7461 314.862 61.0256 308.699 57.9863C304.646 55.96 299.918 54.9469 298.905 55.7912C297.892 56.6354 297.639 60.7723 293.671 61.9543C293.671 61.9543 293.924 69.8904 290.8 69.6371C287.592 69.3838 289.618 57.0576 289.618 57.0576L297.385 53.2584L305.828 51.6543L313.764 52.7518L319.927 54.4404L319.59 58.7461Z" fill="#263238"/>
<path d="M266.57 104.674C274.844 96.1469 289.449 97.0756 289.449 97.0756L301.522 105.687L308.361 97.751C308.361 97.751 315.537 98.5109 322.291 102.057L322.798 102.226V102.31C328.117 105.181 335.631 112.103 342.722 118.773L334.195 126.709L324.74 135.152C324.74 135.152 324.74 135.236 324.74 135.321C324.655 135.827 326.09 147.394 327.526 156.174C318.914 164.363 307.939 167.909 295.697 165.799C291.813 165.123 289.956 164.194 286.326 163.266C281.007 161.915 277.208 157.272 276.701 151.784C276.026 144.439 275.603 135.321 275.603 135.321" fill="#455A64"/>
<path d="M315.875 99.2705C315.875 99.2705 316.128 99.7771 316.381 100.621C316.719 101.466 317.141 102.816 317.647 104.421C318.661 107.629 319.927 112.103 321.109 117C322.291 121.981 323.22 126.54 323.811 129.833C324.064 131.521 324.317 132.788 324.402 133.716C324.57 134.645 324.57 135.152 324.57 135.152C324.57 135.152 324.402 134.645 324.233 133.716C324.064 132.703 323.811 131.437 323.473 129.833C322.797 126.54 321.869 122.066 320.687 117.084C319.505 112.103 318.238 107.713 317.31 104.505C316.888 102.985 316.465 101.634 316.212 100.706C316.043 99.7771 315.875 99.2705 315.875 99.2705Z" fill="#263238"/>
<path d="M332.065 123.193C336.584 119.512 340.175 116.44 340.087 116.331C339.999 116.223 336.264 119.119 331.745 122.8C327.226 126.482 323.635 129.554 323.723 129.662C323.811 129.771 327.546 126.874 332.065 123.193Z" fill="#263238"/>
<path opacity="0.2" d="M277.461 116.409L270.031 140.808L272.817 142.244L275.519 135.321C275.519 135.321 278.305 120.799 277.461 116.409Z" fill="black"/>
<g opacity="0.2">
<path opacity="0.2" d="M315.115 99.2706C319.083 101.381 309.121 106.447 304.562 106.278L307.854 97.582C307.854 97.6665 313.764 98.5951 315.115 99.2706Z" fill="black"/>
</g>
<path d="M288.183 97.6664V91.25C288.183 91.25 300.763 94.4582 301.269 102.057C301.269 102.057 302.873 93.6984 309.374 93.2762L310.303 105.011L302.704 111.597H295.022L288.943 106.362L288.183 98.2574" fill="#455A64"/>
<path d="M304.139 138.191C304.139 138.191 304.139 137.684 304.139 136.84C304.139 135.911 304.139 134.645 304.139 133.041C304.139 129.833 304.055 125.442 303.633 120.63C303.211 115.818 302.62 111.428 302.029 108.304C301.775 106.784 301.522 105.518 301.353 104.589C301.184 103.745 301.1 103.238 301.184 103.238C301.184 103.238 301.353 103.745 301.522 104.589C301.775 105.433 302.029 106.7 302.282 108.304C302.873 111.428 303.548 115.818 303.971 120.715C304.393 125.611 304.393 130.001 304.308 133.21C304.224 134.814 304.224 136.08 304.139 137.009C304.224 137.684 304.139 138.191 304.139 138.191Z" fill="#263238"/>
<path d="M300.678 99.777C300.678 99.777 300.425 99.6925 299.918 99.8614C299.412 100.03 298.99 100.621 298.652 101.465C297.892 103.154 296.879 105.602 296.288 108.473L296.204 108.726L295.95 108.557C295.19 108.135 294.431 107.629 293.671 107.122C292.151 106.109 290.8 105.011 289.618 103.998C289.027 103.492 288.521 102.816 288.267 102.141C288.014 101.465 287.845 100.79 287.845 100.199C287.761 99.0171 288.014 98.004 288.099 97.413C288.267 96.7376 288.352 96.3999 288.352 96.3999C288.352 96.3999 288.352 96.7376 288.267 97.413C288.183 98.0884 288.014 99.0171 288.099 100.199C288.183 100.79 288.267 101.381 288.521 102.056C288.774 102.647 289.281 103.238 289.872 103.745C291.054 104.758 292.489 105.771 293.924 106.784C294.684 107.291 295.444 107.797 296.204 108.22L295.866 108.388C296.541 105.518 297.554 103.07 298.399 101.381C298.567 100.959 298.821 100.621 299.074 100.284C299.327 100.03 299.581 99.777 299.918 99.777C300.425 99.6081 300.763 99.777 300.678 99.777Z" fill="#263238"/>
<path d="M309.374 93.2764C309.374 93.2764 309.458 93.6141 309.458 94.2895C309.543 95.0493 309.543 95.978 309.627 97.0755C309.711 98.2575 309.88 99.6083 310.134 101.128C310.218 101.888 310.471 102.648 310.302 103.576C310.049 104.505 309.374 105.18 308.614 105.687C307.601 106.447 306.588 107.038 305.828 107.798L305.49 108.135V107.629C305.321 104.927 304.393 102.732 303.633 101.381C302.873 99.946 302.198 99.1862 302.198 99.1862C302.198 99.1862 302.366 99.3551 302.704 99.6928C303.042 100.03 303.379 100.537 303.886 101.297C304.73 102.732 305.743 104.927 305.912 107.713L305.575 107.629C306.334 106.785 307.432 106.194 308.361 105.434C309.036 104.927 309.627 104.252 309.88 103.576C310.049 102.817 309.796 102.057 309.711 101.297C309.458 99.7772 309.374 98.3419 309.289 97.2444C309.205 96.0624 309.205 95.1337 309.205 94.4583C309.289 93.6141 309.374 93.2764 309.374 93.2764Z" fill="#263238"/>
<path d="M349.983 94.8804C349.476 95.4714 330.903 120.293 330.903 120.293L333.52 121.812L352.6 97.3287L349.983 94.8804Z" fill="#263238"/>
<path d="M275.434 114.467C275.434 114.467 294.937 142.581 296.119 143.088C298.398 144.185 325.162 121.052 327.694 118.857C328.032 118.351 328.792 117.422 330.227 115.396C330.227 115.396 332.338 105.771 334.617 106.531C336.897 107.291 333.351 111.428 334.871 115.058C336.306 118.688 343.06 109.992 343.313 109.233L345.002 106.953C345.002 106.953 346.775 112.103 346.69 114.214C346.268 121.137 339.767 129.242 339.767 129.242C339.767 129.242 310.556 165.461 290.462 166.558C284.721 166.896 274.421 150.517 267.583 138.275C263.446 130.846 265.472 121.559 272.395 116.493L275.434 114.467Z" fill="#FFBE9D"/>
<path d="M343.313 115.565C343.229 115.565 343.904 114.383 344.58 113.032C345.255 111.597 345.762 110.499 345.846 110.499C345.931 110.499 345.508 111.765 344.833 113.116C344.158 114.551 343.398 115.565 343.313 115.565Z" fill="#EB996E"/>
<path d="M272.057 100.79C272.057 100.79 251.12 108.22 266.654 143.51L290.884 128.904L287.423 120.63L272.057 100.79Z" fill="#455A64"/>
<path d="M270.453 101.381C270.453 101.381 271.382 101.212 272.986 101.634C273.746 101.803 274.759 102.225 275.772 102.816C276.785 103.407 277.798 104.251 278.811 105.349C280.838 107.46 282.78 110.415 284.468 113.876C286.241 117.338 287.929 121.221 289.618 125.274C290.125 126.54 290.631 127.722 291.138 128.82L291.222 128.988L291.053 129.073C284.046 132.872 277.967 136.502 273.661 139.12C271.466 140.47 269.778 141.568 268.596 142.328C268.005 142.665 267.583 143.003 267.245 143.172C266.907 143.341 266.739 143.425 266.739 143.425C266.739 143.425 266.907 143.256 267.161 143.088C267.498 142.834 267.92 142.581 268.511 142.159C269.693 141.315 271.382 140.217 273.493 138.866C277.798 136.165 283.877 132.534 290.884 128.651L290.8 128.904C290.293 127.722 289.787 126.54 289.28 125.358C287.592 121.221 285.903 117.338 284.215 113.961C282.442 110.583 280.669 107.629 278.643 105.518C277.629 104.42 276.616 103.576 275.688 102.985C274.759 102.394 273.83 101.972 272.986 101.803C271.382 101.381 270.453 101.465 270.453 101.381Z" fill="#263238"/>
<path d="M315.537 49.1216C315.537 49.1216 315.621 49.206 315.621 49.4593C315.621 49.7126 315.706 50.0503 315.706 50.5568C315.621 51.4855 315.284 52.9208 314.102 54.1872C312.92 55.4536 310.725 56.2978 308.445 55.6224C307.348 55.2847 306.25 54.6093 305.575 53.5117C305.237 53.0052 305.068 52.2453 305.153 51.5699C305.237 50.8945 305.575 50.2191 306.166 49.797C306.757 49.3749 307.601 49.3749 308.192 49.6281C308.783 49.8814 309.374 50.388 309.543 50.979C310.049 52.2454 309.712 53.5962 308.952 54.5249C307.517 56.4667 304.899 56.6355 303.38 55.7068C302.62 55.3691 301.944 55.0314 301.269 54.947C300.594 54.7781 300.087 54.947 299.665 55.1158C298.821 55.538 298.483 55.9601 298.483 55.8757C298.483 55.8757 298.567 55.7913 298.736 55.6224C298.821 55.538 298.905 55.4535 299.074 55.2847C299.243 55.2003 299.412 55.0314 299.58 54.947C300.003 54.6937 300.594 54.6093 301.269 54.6937C301.944 54.7781 302.704 55.1158 303.464 55.4536C303.886 55.6224 304.224 55.7913 304.646 55.8757C305.068 55.9601 305.575 55.9601 305.997 55.8757C306.926 55.7068 307.854 55.2003 308.53 54.356C309.121 53.5117 309.458 52.3298 309.036 51.2322C308.698 50.2191 307.263 49.5437 306.25 50.1347C305.744 50.4724 305.49 50.979 305.406 51.5699C305.321 52.1609 305.49 52.6675 305.744 53.174C306.335 54.1872 307.348 54.7781 308.361 55.1158C310.471 55.7068 312.582 55.0314 313.68 53.8495C314.862 52.6675 315.199 51.3167 315.368 50.388C315.706 49.6281 315.537 49.1216 315.537 49.1216Z" fill="#455A64"/>
<path d="M310.978 80.9501C310.978 81.0345 310.725 81.1189 310.218 81.1189C309.796 81.1189 309.121 81.0345 308.445 80.6968C307.77 80.3591 307.348 79.937 307.095 79.5149C306.841 79.0927 306.757 78.8394 306.841 78.8394C306.926 78.755 307.517 79.7681 308.699 80.2747C309.881 80.9501 310.978 80.8657 310.978 80.9501Z" fill="#263238"/>
<path d="M288.858 77.2355C288.858 77.2355 289.112 77.5732 288.858 78.1642C288.689 78.4175 288.436 78.7552 288.014 78.8396C287.592 78.924 287.085 78.8396 286.663 78.5019C286.326 78.1642 286.072 77.742 286.072 77.2355C286.072 76.8134 286.241 76.4757 286.494 76.2224C286.917 75.7158 287.339 75.7158 287.339 75.7158C287.339 75.8002 287.001 75.9691 286.748 76.3912C286.494 76.8134 286.326 77.5732 286.917 78.0798C287.17 78.333 287.592 78.4175 287.845 78.333C288.183 78.2486 288.352 78.0798 288.521 77.9109C288.858 77.5732 288.774 77.2355 288.858 77.2355Z" fill="#263238"/>
<path d="M316.972 51.9922C316.972 51.9922 317.31 52.4987 317.394 53.5119C317.479 54.525 317.141 55.9602 316.128 57.1422C315.115 58.3242 313.679 58.8307 312.666 58.9151C311.653 58.9996 311.062 58.7463 311.062 58.7463C311.062 58.6619 311.653 58.7463 312.582 58.6619C313.511 58.493 314.777 57.9865 315.706 56.8889C316.634 55.7914 316.972 54.4406 316.972 53.5119C317.057 52.5832 316.888 51.9922 316.972 51.9922Z" fill="#455A64"/>
<path d="M275.975 129.062C282.913 125.631 288.487 122.749 288.425 122.623C288.363 122.498 282.688 125.177 275.75 128.608C268.812 132.038 263.238 134.92 263.3 135.046C263.362 135.171 269.036 132.492 275.975 129.062Z" fill="#E0E0E0"/>
<path d="M272.262 119.258C278.424 115.951 283.366 113.17 283.3 113.046C283.234 112.923 278.185 115.504 272.022 118.812C265.86 122.12 260.918 124.901 260.984 125.024C261.05 125.147 266.099 122.566 272.262 119.258Z" fill="#E0E0E0"/>
<path d="M278.474 105.265C278.474 105.35 277.545 105.856 276.025 106.7C274.337 107.629 272.311 108.811 269.947 110.077C267.667 111.428 265.557 112.61 263.952 113.539C262.433 114.383 261.42 114.974 261.42 114.89C261.42 114.805 262.264 114.214 263.784 113.286C265.303 112.357 267.414 111.091 269.778 109.74C272.142 108.389 274.337 107.291 275.941 106.447C277.376 105.687 278.389 105.265 278.474 105.265Z" fill="#E0E0E0"/>
<path d="M296.963 103.492C296.963 103.576 296.288 103.492 295.359 103.07C294.43 102.648 293.164 101.888 291.982 100.875C290.8 99.777 289.871 98.6795 289.196 97.9197C288.52 97.0754 288.183 96.5688 288.267 96.5688C288.352 96.5688 288.774 96.991 289.449 97.7508C290.125 98.5107 291.138 99.6082 292.235 100.621C293.417 101.634 294.599 102.394 295.528 102.901C296.372 103.239 296.963 103.407 296.963 103.492Z" fill="#E0E0E0"/>
<path d="M309.29 98.8486C309.374 98.8486 308.867 100.284 307.517 101.381C306.166 102.479 304.731 102.817 304.731 102.648C304.646 102.563 305.997 102.057 307.263 101.044C308.53 100.031 309.205 98.8486 309.29 98.8486Z" fill="#E0E0E0"/>
<path d="M331.24 111.597C331.24 111.597 331.071 111.681 330.734 111.681C330.396 111.766 329.889 111.766 329.383 111.85C328.201 112.019 326.512 112.103 324.402 112.272C320.18 112.61 314.271 112.947 307.854 113.201C301.353 113.454 295.528 113.538 291.222 113.454C289.112 113.454 287.339 113.37 286.157 113.37C285.566 113.37 285.144 113.285 284.806 113.285C284.468 113.285 284.299 113.285 284.299 113.201C284.299 113.201 284.468 113.201 284.806 113.201C285.144 113.201 285.65 113.201 286.157 113.201C287.423 113.201 289.112 113.201 291.222 113.201C295.444 113.116 301.353 113.032 307.77 112.779C314.271 112.525 320.096 112.272 324.317 112.019C326.428 111.85 328.117 111.766 329.298 111.681C329.889 111.681 330.312 111.597 330.649 111.597C331.071 111.597 331.24 111.597 331.24 111.597Z" fill="#E0E0E0"/>
<path d="M324.571 121.559C324.571 121.559 324.064 121.643 323.22 121.812C322.291 121.897 321.025 122.066 319.421 122.234C316.213 122.572 311.738 122.825 306.841 123.079C301.945 123.248 297.47 123.332 294.262 123.332C292.658 123.332 291.307 123.248 290.463 123.248C289.534 123.248 289.027 123.163 289.027 123.163C289.027 123.163 289.534 123.079 290.463 123.079C291.476 123.079 292.742 123.079 294.262 122.994C297.47 122.91 301.945 122.825 306.841 122.657C311.738 122.488 316.213 122.234 319.421 121.981C320.94 121.897 322.291 121.812 323.22 121.728C324.064 121.559 324.571 121.559 324.571 121.559Z" fill="#E0E0E0"/>
<path d="M309.458 133.97C309.458 134.054 308.361 134.223 306.672 134.392C304.899 134.561 302.536 134.729 299.918 134.898C297.301 135.067 294.853 135.067 293.08 135.067C291.307 135.067 290.294 134.983 290.294 134.983C290.294 134.898 291.391 134.898 293.08 134.814C294.937 134.729 297.301 134.645 299.918 134.476C302.536 134.307 304.815 134.223 306.672 134.138C308.361 133.97 309.458 133.885 309.458 133.97Z" fill="#E0E0E0"/>
<path d="M290.125 104.674C290.125 104.758 287.508 104.843 284.384 104.927C281.176 105.096 278.643 105.265 278.558 105.096C278.558 105.012 281.091 104.589 284.299 104.505C287.508 104.336 290.125 104.505 290.125 104.674Z" fill="#E0E0E0"/>
<path d="M325.734 104.159C325.735 104.019 322.371 103.893 318.221 103.877C314.072 103.862 310.707 103.962 310.707 104.102C310.706 104.242 314.07 104.368 318.22 104.384C322.369 104.4 325.734 104.299 325.734 104.159Z" fill="#E0E0E0"/>
<path d="M327.019 155.583C327.019 155.583 326.766 155.752 326.259 156.005C325.752 156.258 324.993 156.596 324.064 157.018C322.207 157.778 319.505 158.707 316.466 159.467C313.426 160.142 310.64 160.48 308.614 160.564C307.601 160.649 306.757 160.649 306.166 160.649C305.575 160.649 305.321 160.649 305.321 160.564C305.321 160.48 306.588 160.48 308.614 160.226C310.64 160.058 313.426 159.635 316.381 158.96C319.42 158.285 322.038 157.356 323.979 156.68C325.837 156.005 327.019 155.499 327.019 155.583Z" fill="#E0E0E0"/>
<path d="M98.9836 256.996C119.173 256.996 135.54 241.385 135.54 222.128C135.54 202.871 119.173 187.26 98.9836 187.26C78.7939 187.26 62.427 202.871 62.427 222.128C62.427 241.385 78.7939 256.996 98.9836 256.996Z" fill="#E0E0E0"/>
<path d="M91.4697 138.04C85.6443 138.377 83.3648 144.372 82.6894 145.722C82.014 147.073 81.9296 148.593 81.7607 150.112C81.5919 151.632 81.423 153.152 80.6632 154.503C79.3968 156.529 76.6951 157.626 75.9353 159.906C75.0911 162.523 77.2017 165.225 76.6951 167.926C76.3574 169.362 75.3443 170.544 75.0066 171.979C74.5845 173.414 75.0066 175.018 75.7665 176.369C77.7083 179.662 81.5919 181.266 85.3911 181.435C89.1902 181.603 92.905 180.422 96.4509 179.324" fill="#263238"/>
<path d="M117.051 145.553C116.46 146.82 117.051 148.255 117.895 149.268C118.824 150.281 120.006 150.956 121.019 151.801C122.032 152.645 123.045 153.743 123.13 155.093C123.214 156.36 122.623 157.542 122.792 158.808C123.214 161.932 128.28 162.945 128.533 166.069C128.702 168.179 126.507 170.121 127.182 172.147C127.435 172.907 128.026 173.498 128.449 174.258C129.884 176.622 128.871 179.915 126.844 181.772C124.734 183.629 121.863 184.305 119.162 184.389C116.798 184.474 114.18 184.136 112.83 182.194C111.563 180.506 111.817 178.142 112.07 176.031C113.252 166.153 113.083 156.107 112.83 146.144" fill="#263238"/>
<path d="M92.9892 191.312C93.0736 186.078 92.9892 180.675 92.9892 180.675C92.9892 180.675 86.3195 179.493 85.0531 170.712C83.7867 162.354 85.8973 144.371 85.8973 144.371C95.6064 140.572 106.497 142.007 113.251 149.859L112.238 192.072C112.154 196.969 107.764 200.768 102.529 200.599C97.2105 200.43 92.9892 196.293 92.9892 191.312Z" fill="#FFBE9D"/>
<path d="M87.7546 158.217C87.7546 158.808 88.1768 159.315 88.8522 159.399C89.4432 159.399 89.9497 158.977 90.0342 158.386C90.0342 157.795 89.612 157.289 88.9366 157.204C88.2612 157.204 87.7546 157.626 87.7546 158.217Z" fill="#263238"/>
<path d="M85.8975 157.373C86.0663 157.542 86.9106 156.866 88.0925 156.951C90.3721 157.289 90.2876 157.626 90.2876 157.457C90.372 157.373 90.2032 157.12 89.8655 156.866C89.5278 156.613 88.8524 156.275 88.0925 156.275C87.3327 156.275 86.7417 156.529 86.3196 156.782C85.9819 157.035 85.8975 157.289 85.8975 157.373Z" fill="#263238"/>
<path d="M100.081 158.555C100.081 159.146 100.503 159.652 101.179 159.737C101.77 159.737 102.276 159.314 102.361 158.723C102.361 158.132 101.938 157.626 101.263 157.542C100.588 157.542 100.081 157.964 100.081 158.555Z" fill="#263238"/>
<path d="M98.4768 157.795C98.6457 157.964 99.49 157.288 100.672 157.373C101.854 157.373 102.783 157.964 102.867 157.879C102.951 157.795 102.783 157.542 102.445 157.288C102.107 157.035 101.432 156.697 100.672 156.697C99.9121 156.697 99.3211 156.951 98.899 157.204C98.5613 157.457 98.3924 157.71 98.4768 157.795Z" fill="#263238"/>
<path d="M94.0024 166.407C94.0024 166.322 93.2426 166.238 92.0606 166.069C91.7229 166.069 91.4696 165.984 91.3852 165.731C91.3008 165.478 91.4696 165.14 91.6385 164.802C91.9762 164.043 92.2294 163.283 92.5671 162.439C93.8335 159.146 94.8467 156.36 94.6778 156.36C94.509 156.275 93.4114 158.977 92.0606 162.27C91.7229 163.114 91.4696 163.874 91.1319 164.634C91.0475 164.971 90.7942 165.393 90.963 165.816C91.0475 166.069 91.3008 166.238 91.4696 166.238C91.6385 166.322 91.8073 166.322 91.9762 166.322C93.2426 166.491 94.0024 166.491 94.0024 166.407Z" fill="#263238"/>
<path d="M92.9893 180.675C92.9893 180.675 98.8991 181.097 104.725 177.72C104.725 177.72 101.854 183.714 93.0737 182.785L92.9893 180.675Z" fill="#EB996E"/>
<path d="M94.509 169.362C94.9312 168.771 95.691 168.517 96.4508 168.602C96.9574 168.686 97.4639 168.939 97.8016 169.362C98.1394 169.784 98.1394 170.375 97.8861 170.797C97.5484 171.219 96.873 171.388 96.282 171.219C95.691 171.05 95.1844 170.628 94.7623 170.29C94.5935 170.206 94.509 170.037 94.4246 169.953C94.3402 169.699 94.3402 169.53 94.509 169.362Z" fill="#EB996E"/>
<path d="M97.5482 167.335C97.3793 167.335 97.2949 168.602 96.1973 169.531C95.0998 170.459 93.6646 170.29 93.6646 170.459C93.6646 170.544 94.0023 170.712 94.5932 170.712C95.1842 170.712 96.0285 170.544 96.7039 170.037C97.3793 169.446 97.717 168.686 97.717 168.18C97.8014 167.589 97.6326 167.335 97.5482 167.335Z" fill="#263238"/>
<path d="M109.453 143.696C106.244 148.255 97.8017 152.983 91.723 153.996C92.3984 153.067 96.1132 150.788 96.873 149.859C94.087 151.885 90.2034 154.671 86.573 154.84C86.1509 154.84 85.6443 154.84 85.3066 154.671C84.8001 154.418 84.7157 153.827 84.6312 153.32C84.3779 151.21 84.5468 147.495 84.8845 145.384C85.2222 143.274 86.2353 141.163 88.0083 139.728C90.3722 137.955 93.6648 137.448 96.873 137.364C99.4902 137.28 102.276 137.448 104.64 138.377C107.089 139.306 109.115 141.248 109.453 143.443" fill="#263238"/>
<path d="M118.655 164.043C119.077 161.763 119.415 159.653 119.499 158.217C119.753 153.743 118.486 137.111 102.952 138.377L102.361 143.105C102.361 143.105 99.9968 159.315 110.044 159.399C110.044 159.399 110.634 164.212 115.194 168.939C115.025 169.024 117.726 168.939 118.655 164.043Z" fill="#263238"/>
<path d="M109.959 159.483C110.888 159.315 111.901 159.315 112.745 159.737C113.589 160.074 114.434 160.75 114.771 161.594C115.109 162.438 115.109 163.451 114.771 164.38C114.434 165.309 113.843 166.069 113.167 166.744C112.661 167.251 112.154 167.673 111.479 167.842C110.803 168.01 110.043 167.926 109.537 167.504" fill="#FFBE9D"/>
<path d="M110.381 165.14C110.297 165.14 110.634 165.731 111.563 165.562C111.985 165.478 112.407 165.14 112.661 164.634C112.914 164.211 113.083 163.705 113.167 163.114C113.252 162.523 113.083 161.932 112.83 161.425C112.492 161.003 112.07 160.666 111.648 160.666C110.803 160.666 110.466 161.257 110.55 161.257C110.634 161.341 110.972 161.003 111.563 161.172C112.154 161.257 112.661 162.016 112.492 163.029C112.407 163.958 111.985 164.887 111.479 165.056C110.888 165.309 110.466 165.056 110.381 165.14Z" fill="#EB996E"/>
<path d="M111.648 141.923C112.83 142.598 114.265 142.767 115.616 142.43C116.966 142.092 118.148 141.163 118.824 139.981C119.246 139.221 119.499 138.293 119.33 137.448C118.993 136.266 117.895 135.507 116.713 135.169C115.025 134.747 113.083 135.169 111.816 136.351C110.55 137.533 109.959 139.475 110.55 141.163C111.141 142.852 112.83 144.034 114.603 143.949" fill="#263238"/>
<path d="M113.083 167.167C112.239 167.757 111.31 168.433 110.635 169.277C109.959 170.121 109.453 171.135 109.621 172.232C109.706 172.823 109.875 173.414 109.79 174.005C109.706 174.849 109.03 175.44 108.524 176.116C107.426 177.889 107.848 180.421 109.284 181.941C110.719 183.461 112.914 184.221 115.025 184.305C116.291 184.305 117.557 184.136 118.571 183.461C120.006 182.448 120.597 180.506 120.597 178.733" fill="#263238"/>
<path d="M114.096 145.469C114.18 145.469 113.843 146.144 113.167 147.073C112.492 148.002 111.479 149.184 110.212 150.366C108.862 151.463 107.511 152.308 106.498 152.814C105.485 153.321 104.809 153.489 104.809 153.489C104.725 153.321 107.342 152.308 109.959 150.028C112.492 147.749 114.012 145.385 114.096 145.469Z" fill="#455A64"/>
<path d="M115.7 145.384C115.785 145.384 115.7 146.229 115.447 147.495C115.109 148.761 114.518 150.534 113.505 152.307C112.407 154.08 111.226 155.431 110.212 156.275C109.199 157.12 108.524 157.542 108.439 157.542C108.355 157.457 111.057 155.516 113.167 152.054C115.194 148.593 115.616 145.3 115.7 145.384Z" fill="#455A64"/>
<path d="M82.0138 152.392C82.1827 152.392 82.3515 153.827 82.7737 155.6C83.2802 157.288 83.8712 158.639 83.7868 158.724C83.7024 158.808 82.8581 157.542 82.3515 155.769C81.845 153.911 81.845 152.392 82.0138 152.392Z" fill="#455A64"/>
<path d="M119.246 182.279C119.246 182.194 119.668 182.701 120.512 182.701C120.934 182.701 121.525 182.616 122.032 182.194C122.539 181.856 122.961 181.266 123.13 180.506C123.298 179.746 123.298 178.902 123.13 177.973C122.961 177.044 122.623 176.116 122.285 175.102C121.948 174.089 121.694 172.907 121.948 171.725C122.116 170.459 122.961 169.446 123.298 168.348C123.721 167.251 123.552 165.984 123.045 165.056C122.539 164.043 121.694 163.283 120.766 162.945C120.259 162.776 119.752 162.523 119.33 162.27C118.908 162.016 118.402 161.679 118.148 161.256C117.642 160.328 117.642 159.399 117.642 158.639C117.642 157.795 117.726 157.12 117.557 156.529C117.389 155.938 117.22 155.431 116.882 155.093C116.291 154.418 115.7 154.418 115.784 154.418C115.784 154.418 115.953 154.418 116.122 154.418C116.375 154.502 116.713 154.671 117.051 155.009C117.389 155.347 117.642 155.853 117.811 156.529C117.98 157.204 117.98 157.964 117.98 158.724C117.98 159.484 117.98 160.412 118.486 161.172C118.993 161.932 119.921 162.27 120.934 162.692C121.948 163.029 122.961 163.874 123.467 164.971C123.974 166.069 124.227 167.42 123.721 168.602C123.298 169.784 122.539 170.797 122.37 171.894C122.201 172.992 122.454 174.089 122.707 175.102C123.045 176.116 123.383 177.129 123.552 178.057C123.721 178.986 123.721 179.915 123.467 180.759C123.214 181.603 122.792 182.194 122.201 182.616C121.61 182.954 121.019 183.123 120.597 183.038C120.09 183.038 119.752 182.87 119.584 182.701C119.33 182.363 119.246 182.279 119.246 182.279Z" fill="#455A64"/>
<path d="M113.167 181.688C113.167 181.688 113.252 181.941 113.674 182.11C114.012 182.279 114.856 182.279 115.278 181.688C115.7 181.012 115.7 179.999 115.109 179.071C114.603 178.142 113.674 177.213 113.421 175.778C113.252 175.103 113.421 174.343 113.927 173.836C114.349 173.33 114.856 172.992 115.109 172.57C115.784 171.726 115.784 170.712 115.7 169.868C115.616 169.024 115.362 168.433 115.193 167.926C115.025 167.504 114.94 167.251 115.025 167.251C115.025 167.251 115.193 167.504 115.362 167.926C115.531 168.349 115.869 169.024 115.953 169.868C116.122 170.712 116.122 171.894 115.362 172.823C115.025 173.33 114.518 173.667 114.18 174.09C113.843 174.512 113.674 175.103 113.843 175.694C114.012 176.876 114.94 177.804 115.447 178.902C115.953 179.915 116.038 181.181 115.447 181.941C115.193 182.363 114.687 182.532 114.349 182.532C114.012 182.532 113.674 182.532 113.421 182.363C113.083 182.026 113.083 181.688 113.167 181.688Z" fill="#455A64"/>
<path d="M80.0721 179.493C80.0721 179.493 79.8189 179.239 79.3967 178.817C78.9746 178.311 78.3836 177.635 77.9615 176.622C77.7082 176.116 77.6238 175.44 77.6238 174.765C77.6238 174.089 77.8771 173.33 78.3836 172.739C78.8902 172.148 79.65 171.81 80.1566 171.219C80.6631 170.628 80.6631 169.868 80.4943 169.024C80.3254 168.264 79.9033 167.504 79.5656 166.829C79.2279 166.153 78.8902 165.394 78.7213 164.634C78.5525 163.874 78.7213 163.03 79.1435 162.523C79.5656 161.932 79.9877 161.594 80.4098 161.172C81.2541 160.497 81.7607 159.737 81.8451 159.146C81.9295 158.555 81.7607 158.217 81.8451 158.217C81.8451 158.217 81.9295 158.302 82.0139 158.471C82.0984 158.639 82.0984 158.893 82.0984 159.23C82.0139 159.906 81.5074 160.75 80.6631 161.51C80.241 161.932 79.8189 162.27 79.4812 162.861C79.1435 163.367 78.9746 164.043 79.1435 164.718C79.2279 165.394 79.5656 166.069 79.9877 166.829C80.3254 167.504 80.7476 168.264 81.0008 169.193C81.1697 170.037 81.1697 171.05 80.5787 171.725C79.9877 172.401 79.2279 172.654 78.8057 173.245C78.3836 173.752 78.1303 174.427 78.1303 175.018C78.1303 175.609 78.2148 176.2 78.3836 176.707C78.8057 177.72 79.3123 178.395 79.7344 178.902C79.8189 179.155 80.0721 179.408 80.0721 179.493Z" fill="#455A64"/>
<path d="M115.278 143.02C115.193 143.105 114.603 141.754 113.252 140.825C111.901 139.812 110.55 139.559 110.55 139.475C110.55 139.39 112.07 139.39 113.505 140.488C114.94 141.585 115.362 143.02 115.278 143.02Z" fill="#E8505B"/>
<path d="M116.46 135C116.544 135 116.797 135.338 117.051 135.929C117.304 136.604 117.388 137.533 117.135 138.63C116.882 139.643 116.206 140.488 115.7 140.91C115.193 141.332 114.771 141.501 114.771 141.416C114.771 141.332 115.109 141.163 115.531 140.657C115.953 140.15 116.46 139.475 116.797 138.546C117.051 137.617 116.966 136.689 116.882 136.098C116.544 135.338 116.375 135 116.46 135Z" fill="#455A64"/>
<path opacity="0.3" d="M73.5713 238.845C73.5713 238.845 94.509 258.769 107.004 255.139C119.499 251.508 123.129 242.137 123.129 242.137L123.467 238.76L122.201 237.916L74.1623 234.032L73.5713 238.845Z" fill="black"/>
<path d="M61.1604 220.186L65.2129 209.802L79.7342 218.92L66.817 238.844C66.817 238.844 61.5825 232.006 61.1604 220.186Z" fill="#EB996E"/>
<path d="M77.5392 191.481C84.2933 187.935 92.9892 186.922 92.9892 186.922C95.522 191.988 103.542 192.663 108.355 189.202L112.407 186.416C112.407 186.416 112.998 186.416 114.096 186.5C123.636 187.344 131.488 194.436 133.429 203.892C134.105 207.269 134.696 211.237 134.442 214.867C133.936 224.07 124.396 224.914 124.396 224.914C124.396 224.914 123.889 234.032 123.298 241.377C122.792 246.865 120.006 251.002 114.94 253.281C111.225 254.97 109.115 255.814 104.302 256.574C92.0605 258.516 80.3252 253.872 72.558 245.598C73.9933 236.818 75.4285 225.42 75.2597 224.914C75.2597 224.829 75.2597 224.745 75.2597 224.745L65.8039 216.302L60.4006 211.828C60.4851 211.828 72.2203 194.352 77.5392 191.481Z" fill="#E8505B"/>
<path d="M89.2745 197.222C89.2745 197.306 88.4303 196.547 86.9106 196.547C86.1508 196.547 85.2221 196.8 84.4623 197.391C84.1245 197.729 83.7868 198.151 83.3647 198.573C83.027 198.995 82.5204 199.502 81.845 199.586C81.1696 199.755 80.4942 199.417 80.0721 199.079C79.5655 198.742 79.1434 198.404 78.7213 198.151C77.877 197.644 76.9483 197.729 76.2729 197.897C75.5975 198.151 75.0909 198.573 74.8377 198.911C74.5844 199.248 74.5 199.502 74.4155 199.417C74.4155 199.417 74.4155 199.164 74.6688 198.742C74.9221 198.404 75.3442 197.897 76.1041 197.56C76.8639 197.222 77.9614 197.138 78.8901 197.729C79.3967 197.982 79.8188 198.32 80.2409 198.573C80.6631 198.826 81.1696 199.079 81.6762 198.995C82.1827 198.911 82.6049 198.488 82.9426 198.151C83.2803 197.729 83.618 197.306 84.1245 196.969C84.9688 196.293 85.9819 196.125 86.8262 196.125C87.6704 196.125 88.2614 196.378 88.5991 196.631C89.1057 196.969 89.2745 197.138 89.2745 197.222Z" fill="#FAFAFA"/>
<path d="M98.8991 209.801C98.8147 209.886 98.3081 208.957 96.8729 208.451C96.1975 208.197 95.2688 208.113 94.3401 208.451C93.918 208.619 93.4114 208.957 92.9893 209.21C92.4827 209.464 91.8917 209.801 91.2163 209.717C90.5409 209.633 90.0343 209.126 89.6966 208.704C89.3589 208.282 89.0212 207.775 88.6835 207.438C88.0925 206.678 87.1639 206.424 86.404 206.424C85.6442 206.424 85.0532 206.678 84.7155 206.931C84.3778 207.184 84.2089 207.353 84.1245 207.353C84.1245 207.353 84.2089 207.1 84.5466 206.847C84.8843 206.593 85.4753 206.256 86.3196 206.171C87.0794 206.087 88.177 206.34 88.9368 207.184C89.2745 207.606 89.6122 208.029 89.9499 208.451C90.2876 208.873 90.7098 209.21 91.2163 209.295C91.7229 209.379 92.2294 209.126 92.736 208.873C93.2425 208.619 93.6647 208.282 94.1712 208.113C95.1844 207.775 96.1975 207.86 96.9573 208.197C97.7171 208.451 98.2237 208.957 98.477 209.295C98.8147 209.548 98.8991 209.801 98.8991 209.801Z" fill="#FAFAFA"/>
<path d="M120.259 191.312C120.259 191.397 119.33 190.89 117.811 191.143C117.051 191.312 116.206 191.734 115.615 192.494C115.278 192.832 115.109 193.339 114.771 193.845C114.518 194.352 114.096 194.858 113.505 195.196C112.829 195.449 112.154 195.28 111.647 195.111C111.141 194.943 110.634 194.689 110.128 194.52C109.199 194.183 108.27 194.436 107.679 194.858C107.004 195.28 106.666 195.787 106.497 196.125C106.329 196.462 106.244 196.716 106.244 196.716C106.244 196.716 106.244 196.462 106.329 196.04C106.497 195.618 106.835 195.027 107.511 194.605C108.186 194.183 109.199 193.845 110.297 194.183C110.803 194.352 111.31 194.605 111.816 194.774C112.323 194.943 112.829 195.027 113.336 194.858C113.843 194.689 114.18 194.183 114.433 193.761C114.687 193.254 114.94 192.748 115.278 192.325C115.953 191.481 116.966 191.059 117.726 190.975C118.486 190.806 119.161 190.975 119.583 191.059C120.09 191.143 120.259 191.312 120.259 191.312Z" fill="#FAFAFA"/>
<path d="M110.381 205.158C110.297 205.242 109.959 204.482 108.861 204.06C108.355 203.891 107.595 203.807 106.92 203.976C106.582 204.06 106.244 204.314 105.822 204.482C105.4 204.651 104.978 204.905 104.387 204.82C103.88 204.736 103.458 204.314 103.205 203.976C102.951 203.638 102.698 203.216 102.529 202.963C102.107 202.372 101.432 202.119 100.841 202.119C99.6589 202.119 99.1523 202.709 99.0679 202.709C99.0679 202.709 99.1523 202.541 99.4056 202.287C99.6589 202.119 100.165 201.865 100.841 201.865C101.432 201.865 102.276 202.118 102.867 202.794C103.12 203.132 103.374 203.469 103.627 203.807C103.88 204.145 104.133 204.398 104.556 204.482C105.315 204.651 106.075 203.891 106.835 203.723C107.679 203.469 108.439 203.638 109.03 203.891C110.212 204.398 110.465 205.242 110.381 205.158Z" fill="#FAFAFA"/>
<path d="M88.6835 216.893C88.5991 216.978 88.2613 216.218 87.1638 215.796C86.6572 215.627 85.8974 215.542 85.222 215.711C84.8843 215.796 84.5466 216.049 84.1245 216.218C83.7023 216.387 83.2802 216.64 82.6892 216.556C82.1827 216.471 81.7605 216.049 81.5072 215.711C81.254 215.374 81.0007 214.951 80.8318 214.698C80.4097 214.107 79.7343 213.854 79.1433 213.854C77.9613 213.854 77.4548 214.445 77.3704 214.445C77.3704 214.445 77.4548 214.276 77.7081 214.023C77.9613 213.854 78.4679 213.601 79.1433 213.601C79.7343 213.601 80.5786 213.854 81.1695 214.529C81.4228 214.867 81.6761 215.205 81.9294 215.542C82.1827 215.88 82.4359 216.133 82.8581 216.218C83.6179 216.387 84.3777 215.627 85.1376 215.458C85.9818 215.205 86.7417 215.374 87.3327 215.627C88.4302 216.049 88.6835 216.893 88.6835 216.893Z" fill="#FAFAFA"/>
<path d="M108.946 217.146C108.946 217.231 108.355 216.64 107.173 216.64C106.582 216.64 105.906 216.724 105.316 217.231C105.062 217.484 104.725 217.737 104.471 218.075C104.134 218.413 103.796 218.751 103.205 218.835C102.614 218.919 102.192 218.666 101.77 218.413C101.432 218.16 101.094 217.906 100.756 217.653C100.166 217.231 99.4057 217.231 98.8991 217.4C97.8016 217.737 97.4639 218.582 97.4639 218.497C97.4639 218.497 97.4639 218.328 97.6327 217.991C97.8016 217.737 98.2237 217.315 98.8147 217.062C99.4057 216.809 100.25 216.809 101.01 217.231C101.347 217.484 101.685 217.737 102.023 217.991C102.361 218.244 102.698 218.413 103.12 218.328C103.88 218.244 104.387 217.315 105.062 216.809C105.738 216.302 106.582 216.218 107.173 216.218C108.524 216.387 109.03 217.146 108.946 217.146Z" fill="#FAFAFA"/>
<path d="M102.276 226.434C102.276 226.518 101.685 225.927 100.503 225.927C99.9122 225.927 99.2368 226.011 98.6458 226.518C98.3925 226.771 98.0548 227.025 97.8016 227.362C97.4639 227.7 97.1262 228.038 96.5352 228.122C95.9442 228.207 95.5221 227.953 95.0999 227.7C94.7622 227.447 94.4245 227.193 94.0868 226.94C93.4958 226.518 92.736 226.518 92.2294 226.687C91.1319 227.025 90.7942 227.869 90.7942 227.784C90.7942 227.784 90.7942 227.616 90.963 227.278C91.1319 227.025 91.554 226.602 92.145 226.349C92.736 226.096 93.5803 226.096 94.3401 226.518C94.6778 226.771 95.0155 227.025 95.3532 227.278C95.6909 227.531 96.0286 227.7 96.4507 227.616C97.2106 227.531 97.7171 226.602 98.3926 226.096C99.068 225.589 99.9122 225.505 100.503 225.505C101.77 225.674 102.276 226.349 102.276 226.434Z" fill="#FAFAFA"/>
<path d="M88.0927 249.398C88.0082 249.482 87.6705 248.722 86.573 248.3C86.0664 248.131 85.3066 248.047 84.6312 248.3C84.2935 248.384 83.9558 248.638 83.5336 248.807C83.1115 248.975 82.6894 249.229 82.0984 249.144C81.5918 249.06 81.1697 248.638 80.9164 248.3C80.6631 247.962 80.4099 247.625 80.241 247.287C79.8189 246.696 79.1435 246.443 78.5525 246.443C77.3705 246.443 76.864 247.118 76.7795 247.034C76.7795 247.034 76.864 246.865 77.1172 246.612C77.3705 246.358 77.8771 246.189 78.4681 246.105C79.059 246.105 79.9033 246.274 80.4943 246.949C80.7476 247.287 81.0009 247.625 81.2541 247.962C81.5074 248.3 81.8451 248.553 82.1828 248.638C82.9427 248.722 83.7025 248.047 84.4623 247.794C85.3066 247.54 86.0664 247.709 86.6574 247.962C87.8394 248.553 88.0927 249.398 88.0927 249.398Z" fill="#FAFAFA"/>
<path d="M104.64 254.294C104.64 254.379 104.049 253.788 102.867 253.703C102.276 253.703 101.601 253.788 101.01 254.21C100.757 254.463 100.419 254.716 100.166 255.054C99.8279 255.392 99.4902 255.729 98.8992 255.814C98.3082 255.898 97.8861 255.645 97.5484 255.392C97.2107 255.138 96.873 254.885 96.5353 254.632C95.9443 254.21 95.1844 254.21 94.6779 254.379C93.5803 254.716 93.2426 255.476 93.1582 255.476C93.1582 255.476 93.1582 255.307 93.4115 254.97C93.5803 254.716 94.0025 254.294 94.5935 254.125C95.1844 253.872 96.0287 253.872 96.7885 254.379C97.1262 254.632 97.4639 254.885 97.8016 255.138C98.1394 255.392 98.4771 255.561 98.8992 255.476C99.659 255.392 100.166 254.463 100.841 254.041C101.516 253.534 102.361 253.45 102.952 253.534C104.218 253.619 104.725 254.294 104.64 254.294Z" fill="#FAFAFA"/>
<path d="M50.0164 184.474C50.5229 185.065 69.0967 209.886 69.0967 209.886L66.4795 211.406L47.3992 186.922L50.0164 184.474Z" fill="#263238"/>
<path d="M122.454 202.203C122.454 202.203 105.062 232.259 103.88 232.765C101.601 233.863 74.8378 210.73 72.305 208.535C71.9673 208.028 71.2074 207.1 69.7722 205.074C69.7722 205.074 67.6615 195.449 65.382 196.209C63.1025 196.969 66.6484 201.105 65.1287 204.736C63.6935 208.366 56.9394 199.67 56.6861 198.91L54.9976 196.631C54.9976 196.631 53.2246 201.781 53.3091 203.892C53.7312 210.814 60.232 218.919 60.232 218.919C60.232 218.919 86.6574 252.099 106.751 253.196C112.492 253.534 123.552 236.902 130.39 224.66C134.527 217.231 132.585 209.717 125.747 204.736L122.454 202.203Z" fill="#FFBE9D"/>
<path d="M56.6016 205.158C56.5172 205.158 55.8418 204.145 55.0819 202.71C54.4065 201.275 53.9844 200.093 54.0688 200.093C54.1532 200.093 54.6598 201.275 55.3352 202.626C56.095 204.061 56.686 205.158 56.6016 205.158Z" fill="#EB996E"/>
<path d="M121.61 193.845C120.934 194.267 104.725 224.323 104.725 224.323L125.578 240.617C125.578 240.617 130.981 227.278 133.852 216.387C134.612 213.432 134.189 205.58 133.092 202.541C131.572 198.235 129.208 199.333 125.662 196.8L121.61 193.845Z" fill="#E8505B"/>
<g opacity="0.7">
<path opacity="0.7" d="M128.448 193.845C128.448 193.845 128.28 193.76 127.857 193.507C127.435 193.338 126.844 193.085 126 193.085C125.156 193.085 124.227 193.507 123.298 194.182C122.37 194.858 121.441 195.871 120.597 197.137C119.753 198.319 118.993 199.839 118.064 201.359C117.22 202.878 116.291 204.567 115.278 206.255C113.336 209.717 111.141 213.516 108.862 217.484C107.511 219.932 106.16 222.212 104.894 224.407L104.809 224.154C110.466 228.628 115.362 232.512 118.908 235.298C120.597 236.649 122.032 237.746 122.961 238.591C123.383 238.928 123.805 239.266 124.058 239.519C124.312 239.688 124.396 239.857 124.396 239.857C124.396 239.857 124.227 239.773 123.974 239.604C123.721 239.35 123.298 239.097 122.876 238.76C121.863 238 120.428 236.902 118.739 235.551C115.194 232.765 110.212 228.966 104.556 224.491L104.387 224.407L104.471 224.238C105.738 222.043 107.089 219.679 108.439 217.315C110.719 213.347 112.914 209.548 114.856 206.171C115.869 204.482 116.798 202.794 117.642 201.274C118.571 199.755 119.33 198.319 120.175 197.053C121.103 195.871 122.032 194.858 122.961 194.098C123.974 193.423 124.987 193 125.831 193C126.675 193 127.351 193.254 127.689 193.507C127.857 193.591 128.026 193.76 128.111 193.76C128.448 193.76 128.448 193.845 128.448 193.845Z" fill="black"/>
</g>
<path d="M122.285 222.043C122.201 222.128 121.863 221.368 120.766 220.946C120.259 220.777 119.499 220.692 118.824 220.861C118.486 220.946 118.148 221.199 117.726 221.368C117.304 221.537 116.882 221.79 116.291 221.705C115.784 221.621 115.362 221.199 115.109 220.861C114.856 220.523 114.603 220.101 114.434 219.848C114.012 219.257 113.336 219.004 112.745 219.004C111.563 219.004 111.057 219.595 110.972 219.595C110.972 219.595 111.057 219.426 111.31 219.173C111.563 219.004 112.07 218.75 112.745 218.75C113.336 218.75 114.18 219.004 114.771 219.679C115.025 220.017 115.278 220.355 115.531 220.692C115.784 221.03 116.038 221.283 116.46 221.368C117.22 221.537 117.98 220.777 118.739 220.608C119.584 220.355 120.343 220.523 120.934 220.777C122.032 221.199 122.285 222.043 122.285 222.043Z" fill="#FAFAFA"/>
<path d="M131.825 218.16C131.741 218.16 131.572 217.4 130.643 216.724C130.221 216.387 129.546 216.133 128.786 216.133C128.448 216.133 128.026 216.302 127.604 216.387C127.182 216.471 126.675 216.556 126.169 216.302C125.662 216.049 125.409 215.542 125.24 215.12C125.071 214.698 124.987 214.276 124.818 213.938C124.565 213.263 123.974 212.841 123.383 212.672C122.285 212.334 121.525 212.841 121.525 212.756C121.525 212.756 121.61 212.588 121.948 212.503C122.285 212.334 122.792 212.25 123.383 212.419C123.974 212.588 124.734 213.01 125.071 213.854C125.24 214.276 125.325 214.614 125.493 215.036C125.662 215.458 125.831 215.796 126.169 215.965C126.844 216.302 127.773 215.796 128.617 215.796C129.461 215.796 130.221 216.133 130.643 216.556C131.825 217.315 131.825 218.16 131.825 218.16Z" fill="#FAFAFA"/>
<path d="M132.248 205.749C132.163 205.749 131.994 204.989 131.066 204.314C130.643 203.976 129.968 203.723 129.208 203.723C128.87 203.723 128.448 203.892 128.026 203.976C127.604 204.061 127.098 204.145 126.591 203.892C126.084 203.638 125.831 203.132 125.662 202.71C125.493 202.288 125.409 201.865 125.24 201.528C124.987 200.852 124.396 200.43 123.805 200.261C122.707 199.924 121.948 200.43 121.948 200.346C121.948 200.346 122.032 200.177 122.37 200.092C122.707 199.924 123.214 199.839 123.805 200.008C124.396 200.177 125.156 200.599 125.493 201.443C125.662 201.865 125.747 202.203 125.916 202.625C126.084 203.047 126.253 203.385 126.591 203.554C127.266 203.892 128.195 203.385 129.039 203.385C129.884 203.385 130.643 203.723 131.066 204.145C132.248 204.82 132.332 205.749 132.248 205.749Z" fill="#FAFAFA"/>
<path d="M127.688 234.285C127.604 234.285 127.435 233.525 126.506 232.85C126.084 232.512 125.409 232.259 124.649 232.259C124.311 232.259 123.889 232.428 123.467 232.512C123.045 232.597 122.538 232.681 122.032 232.428C121.525 232.175 121.272 231.668 121.103 231.246C120.934 230.824 120.85 230.402 120.681 230.064C120.428 229.388 119.837 228.966 119.246 228.797C118.148 228.46 117.388 228.966 117.388 228.882C117.388 228.882 117.473 228.713 117.811 228.629C118.148 228.46 118.655 228.375 119.246 228.544C119.837 228.713 120.597 229.135 120.934 229.979C121.103 230.402 121.188 230.739 121.356 231.161C121.525 231.584 121.694 231.921 122.032 232.09C122.707 232.428 123.636 231.921 124.48 231.921C125.324 231.921 126.084 232.259 126.506 232.681C127.688 233.441 127.688 234.285 127.688 234.285Z" fill="#FAFAFA"/>
</g>
<path d="M353 288.3C353 288.4 279.134 288.6 188.037 288.6C96.8661 288.6 23 288.5 23 288.3C23 288.2 96.8661 288 187.963 288C279.134 288.1 353 288.2 353 288.3Z" fill="#263238"/>
<defs>
<clipPath id="clip0_1557_10054">
<rect width="375" height="288" fill="white"/>
</clipPath>
</defs>
</svg>
