<svg width="294" height="294" viewBox="0 0 294 294" fill="none" xmlns="http://www.w3.org/2000/svg">
<path d="M240.848 182.92L225.191 178.629C224.278 178.378 223.325 178.31 222.386 178.428C221.447 178.546 220.54 178.847 219.718 179.316C218.895 179.785 218.173 180.411 217.593 181.158C217.013 181.906 216.585 182.761 216.336 183.674L215.48 186.798C217.097 194.788 217.41 202.014 215.872 207.73C216.264 207.918 216.672 208.071 217.091 208.186L232.748 212.477C233.661 212.728 234.614 212.796 235.553 212.678C236.493 212.56 237.399 212.258 238.222 211.789C239.044 211.32 239.766 210.694 240.346 209.946C240.927 209.198 241.354 208.344 241.603 207.43L245.894 191.773C246.145 190.861 246.213 189.908 246.095 188.969C245.977 188.03 245.675 187.123 245.206 186.301C244.737 185.479 244.111 184.757 243.363 184.177C242.615 183.596 241.761 183.169 240.848 182.92Z" fill="#90C9ED"/>
<path d="M105.055 165.879L55.3852 171.759C54.1021 171.912 52.801 171.782 51.5735 171.379L51.6867 171.927C51.9232 173.069 52.3823 174.152 53.0377 175.117C53.6931 176.081 54.532 176.906 55.5065 177.546C56.481 178.186 57.572 178.628 58.7173 178.846C59.8625 179.064 61.0394 179.055 62.181 178.818L103.881 170.207C103.925 170.037 103.967 169.866 104.011 169.694C104.339 168.378 104.69 167.11 105.055 165.879Z" fill="#008E6D"/>
<path d="M55.3853 171.752L105.055 165.872C105.978 162.725 107.086 159.636 108.373 156.62C107.904 157.004 107.335 157.246 106.732 157.317L96.9143 158.478C96.4986 158.527 96.0773 158.494 95.6744 158.38C95.2716 158.266 94.8951 158.074 94.5666 157.814C94.238 157.555 93.9637 157.233 93.7594 156.868C93.5552 156.503 93.4249 156.101 93.376 155.685L92.2162 145.923C92.167 145.507 92.2002 145.085 92.3139 144.682C92.4277 144.279 92.6197 143.903 92.8791 143.574C93.1385 143.245 93.4601 142.971 93.8256 142.766C94.1911 142.562 94.5933 142.432 95.0092 142.383L104.827 141.222C105.667 141.123 106.511 141.362 107.175 141.886C107.838 142.409 108.267 143.175 108.366 144.015L109.525 153.777C109.536 153.868 109.542 153.958 109.545 154.047C111.98 148.97 114.7 144.957 117.509 141.788L113.946 111.832C113.668 109.495 112.473 107.364 110.625 105.907C108.776 104.451 106.425 103.788 104.088 104.064L102.583 104.242L103.006 107.808C103.103 108.624 102.871 109.445 102.362 110.091C101.854 110.736 101.11 111.153 100.294 111.25L99.822 111.306C99.0064 111.402 98.1858 111.171 97.5408 110.663C96.8957 110.154 96.479 109.41 96.3821 108.595L95.9588 105.026L56.0218 109.747L56.4481 113.314C56.5447 114.13 56.3132 114.951 55.8046 115.596C55.296 116.241 54.5519 116.658 53.736 116.755L53.2641 116.811C52.4485 116.907 51.628 116.676 50.9829 116.168C50.3379 115.659 49.9211 114.916 49.8243 114.1L49.3921 110.531L48.1323 110.678C45.7948 110.956 43.6635 112.151 42.2072 114.001C40.7508 115.85 40.0887 118.203 40.3663 120.54L45.5275 163.982C45.8051 166.319 46.9995 168.45 48.8481 169.906C50.6967 171.363 53.0481 172.026 55.3853 171.749V171.752ZM92.6675 122.704L102.484 121.543C103.217 121.455 103.958 121.626 104.579 122.025L106.709 118.776C106.815 118.615 106.952 118.476 107.112 118.367C107.272 118.259 107.451 118.183 107.641 118.144C107.83 118.105 108.025 118.104 108.214 118.14C108.404 118.176 108.585 118.25 108.746 118.356C108.908 118.462 109.047 118.599 109.155 118.759C109.264 118.919 109.339 119.098 109.378 119.287C109.418 119.477 109.419 119.672 109.383 119.861C109.346 120.051 109.273 120.232 109.167 120.393L106.108 125.053L107.182 134.094C107.231 134.509 107.198 134.931 107.084 135.334C106.971 135.737 106.779 136.114 106.519 136.442C106.26 136.771 105.938 137.045 105.573 137.25C105.207 137.454 104.805 137.584 104.389 137.633L94.5726 138.795C94.1568 138.844 93.7355 138.81 93.3327 138.696C92.9299 138.583 92.5534 138.39 92.2248 138.131C91.8963 137.872 91.622 137.55 91.4177 137.185C91.2135 136.819 91.0832 136.417 91.0343 136.002L89.8745 126.241C89.8255 125.825 89.8588 125.404 89.9727 125.001C90.0866 124.598 90.2787 124.222 90.5381 123.894C90.7975 123.565 91.119 123.291 91.4844 123.087C91.8498 122.883 92.2518 122.753 92.6675 122.704ZM88.8293 146.331L89.9891 156.094C90.0383 156.509 90.0051 156.931 89.8914 157.334C89.7776 157.737 89.5856 158.114 89.3262 158.442C89.0668 158.771 88.7452 159.045 88.3797 159.25C88.0142 159.454 87.612 159.584 87.1961 159.633L77.3795 160.795C76.9637 160.844 76.5424 160.81 76.1396 160.696C75.7368 160.583 75.3603 160.39 75.0317 160.131C74.7032 159.872 74.4289 159.55 74.2246 159.185C74.0203 158.819 73.89 158.417 73.8412 158.002L72.6813 148.241C72.6319 147.825 72.665 147.403 72.7786 147C72.8923 146.597 73.0843 146.22 73.3437 145.891C73.6031 145.562 73.9248 145.288 74.2904 145.083C74.656 144.879 75.0583 144.748 75.4743 144.7L85.291 143.538C86.1305 143.44 86.9749 143.679 87.6384 144.202C88.3019 144.726 88.7302 145.492 88.8293 146.331ZM73.1341 125.016L82.9508 123.856C83.3665 123.807 83.7879 123.841 84.1908 123.954C84.5937 124.068 84.9703 124.26 85.2989 124.52C85.6275 124.779 85.9018 125.101 86.106 125.466C86.3102 125.832 86.4404 126.234 86.489 126.649L87.6489 136.41C87.6981 136.826 87.6649 137.248 87.5511 137.651C87.4374 138.054 87.2453 138.43 86.9859 138.759C86.7265 139.088 86.4049 139.362 86.0394 139.566C85.674 139.771 85.2718 139.901 84.8559 139.95L75.0392 141.111C74.1995 141.21 73.3547 140.972 72.6909 140.448C72.0271 139.924 71.5985 139.158 71.4995 138.318L70.3396 128.558C70.29 128.141 70.3229 127.719 70.4366 127.316C70.5502 126.912 70.7423 126.535 71.0019 126.206C71.2614 125.877 71.5834 125.602 71.9492 125.397C72.3151 125.193 72.7177 125.062 73.1341 125.013V125.016ZM52.1572 140.603L50.9974 130.842C50.9479 130.426 50.981 130.004 51.0947 129.601C51.2083 129.198 51.4003 128.821 51.6597 128.492C51.9192 128.163 52.2408 127.889 52.6064 127.684C52.972 127.48 53.3743 127.35 53.7904 127.301L63.6085 126.141C64.0243 126.092 64.4456 126.125 64.8486 126.239C65.2515 126.352 65.628 126.545 65.9566 126.804C66.2852 127.063 66.5595 127.385 66.7637 127.75C66.9679 128.116 67.0981 128.518 67.1468 128.934L68.3066 138.695C68.3558 139.111 68.3226 139.532 68.2089 139.935C68.0951 140.338 67.9031 140.715 67.6437 141.043C67.3843 141.372 67.0627 141.646 66.6972 141.851C66.3317 142.055 65.9295 142.186 65.5136 142.234L55.6955 143.396C55.2798 143.445 54.8584 143.411 54.4556 143.298C54.0528 143.184 53.6763 142.992 53.3478 142.732C53.0192 142.473 52.7449 142.151 52.5406 141.786C52.3364 141.421 52.2061 141.018 52.1572 140.603ZM56.1262 146.991L65.9443 145.824C66.3601 145.775 66.7814 145.809 67.1842 145.922C67.587 146.036 67.9635 146.228 68.2921 146.488C68.6206 146.747 68.8949 147.069 69.0992 147.434C69.3035 147.799 69.4338 148.201 69.4826 148.617L70.6425 158.379C70.6921 158.795 70.6591 159.217 70.5455 159.62C70.4319 160.023 70.2399 160.4 69.9805 160.729C69.721 161.058 69.3992 161.332 69.0335 161.536C68.6679 161.741 68.2655 161.871 67.8494 161.919L58.0328 163.08C57.6171 163.13 57.1957 163.096 56.7929 162.982C56.3901 162.868 56.0136 162.676 55.6851 162.417C55.3565 162.158 55.0822 161.836 54.8779 161.471C54.6737 161.105 54.5434 160.703 54.4945 160.287L53.3347 150.527C53.2365 149.688 53.4756 148.844 53.9993 148.181C54.5231 147.518 55.2886 147.09 56.1277 146.991H56.1262Z" fill="#54C0A1"/>
<path d="M53.2611 116.811L53.733 116.755C54.1373 116.707 54.5282 116.58 54.8835 116.382C55.2387 116.183 55.5514 115.916 55.8035 115.597C56.0556 115.277 56.2423 114.911 56.3529 114.519C56.4635 114.127 56.4959 113.718 56.4481 113.314L56.0247 109.747L55.5837 106.031C55.536 105.627 55.4092 105.237 55.2105 104.882C55.0118 104.528 54.7452 104.216 54.4259 103.964C54.1066 103.713 53.7409 103.526 53.3496 103.416C52.9583 103.306 52.5491 103.274 52.1454 103.322L51.6721 103.378C51.2672 103.424 50.8754 103.55 50.5193 103.748C50.1632 103.946 49.8497 104.213 49.5969 104.532C49.3441 104.852 49.1569 105.218 49.0461 105.611C48.9352 106.003 48.903 106.413 48.9511 106.818L49.3921 110.531L49.8155 114.1C49.8634 114.504 49.9906 114.895 50.1897 115.25C50.3889 115.606 50.6562 115.918 50.9762 116.17C51.2962 116.422 51.6628 116.608 52.0549 116.718C52.4469 116.828 52.8568 116.859 53.2611 116.811Z" fill="#008E6D"/>
<path d="M99.8218 111.305L100.294 111.249C101.11 111.153 101.854 110.736 102.362 110.09C102.871 109.445 103.102 108.624 103.006 107.808L102.582 104.242L102.141 100.526C102.094 100.122 101.967 99.7317 101.768 99.3771C101.57 99.0224 101.303 98.7104 100.984 98.4588C100.664 98.2072 100.299 98.021 99.9072 97.9108C99.5159 97.8006 99.1068 97.7686 98.7031 97.8166L98.2297 97.8724C97.8257 97.92 97.435 98.0468 97.08 98.2454C96.725 98.4441 96.4126 98.7108 96.1607 99.0302C95.9089 99.3497 95.7224 99.7157 95.6121 100.107C95.5017 100.499 95.4696 100.908 95.5176 101.312L95.9586 105.025L96.3819 108.595C96.4788 109.41 96.8955 110.154 97.5406 110.662C98.1856 111.171 99.0062 111.402 99.8218 111.305Z" fill="#008E6D"/>
<path d="M63.5997 126.144L53.7837 127.304C52.0358 127.511 50.7862 129.095 50.9928 130.843L52.1465 140.605C52.3531 142.353 53.9375 143.603 55.6855 143.396L65.5014 142.236C67.2494 142.029 68.4989 140.445 68.2923 138.697L67.1387 128.935C66.9321 127.187 65.3476 125.938 63.5997 126.144Z" fill="#D9E3F3"/>
<path d="M82.9471 123.858L73.1311 125.018C71.3832 125.224 70.1336 126.809 70.3402 128.557L71.4939 138.319C71.7005 140.066 73.2849 141.316 75.0329 141.109L84.8488 139.949C86.5968 139.743 87.8463 138.158 87.6397 136.41L86.4861 126.648C86.2795 124.9 84.695 123.651 82.9471 123.858Z" fill="#D9E3F3"/>
<path d="M91.0371 136.006C91.086 136.422 91.2163 136.824 91.4206 137.189C91.6248 137.554 91.8991 137.876 92.2277 138.135C92.5563 138.395 92.9327 138.587 93.3355 138.701C93.7384 138.814 94.1597 138.848 94.5754 138.799L104.392 137.637C104.808 137.589 105.21 137.458 105.576 137.254C105.941 137.05 106.263 136.775 106.522 136.446C106.781 136.118 106.974 135.741 107.087 135.338C107.201 134.935 107.234 134.514 107.185 134.098L106.11 125.057L101.504 132.071C101.076 132.721 100.416 133.184 99.6585 133.365C98.9013 133.547 98.1034 133.433 97.4272 133.047L97.3111 132.981L93.8654 130.077C93.715 129.954 93.5907 129.802 93.4996 129.63C93.4085 129.458 93.3525 129.269 93.3347 129.075C93.317 128.882 93.3379 128.686 93.3963 128.501C93.4546 128.315 93.5493 128.143 93.6747 127.994C93.8002 127.845 93.9539 127.723 94.127 127.634C94.3001 127.545 94.4891 127.491 94.6831 127.476C94.8771 127.461 95.0722 127.484 95.2571 127.545C95.442 127.606 95.613 127.702 95.7602 127.83L98.9413 130.509C98.9618 130.51 98.9822 130.506 99.0004 130.497C99.0187 130.487 99.0343 130.474 99.0457 130.457L104.579 122.025C103.958 121.625 103.217 121.455 102.484 121.542L92.6674 122.704C92.2512 122.752 91.8488 122.883 91.4832 123.087C91.1175 123.292 90.7957 123.566 90.5362 123.895C90.2768 124.224 90.0848 124.601 89.9712 125.004C89.8576 125.407 89.8247 125.829 89.8744 126.245L91.0371 136.006Z" fill="#D9E3F3"/>
<path d="M65.9384 145.835L56.1225 146.995C54.3745 147.201 53.125 148.786 53.3316 150.534L54.4852 160.296C54.6918 162.043 56.2763 163.293 58.0242 163.086L67.8402 161.926C69.5881 161.72 70.8376 160.135 70.6311 158.387L69.4774 148.625C69.2708 146.878 67.6864 145.628 65.9384 145.835Z" fill="#D9E3F3"/>
<path d="M85.2845 143.549L75.4685 144.709C73.7206 144.916 72.471 146.5 72.6776 148.248L73.8313 158.01C74.0379 159.758 75.6223 161.007 77.3703 160.801L87.1862 159.641C88.9342 159.434 90.1837 157.85 89.9771 156.102L88.8235 146.34C88.6169 144.592 87.0324 143.342 85.2845 143.549Z" fill="#D9E3F3"/>
<path d="M108.363 144.022C108.264 143.182 107.835 142.417 107.172 141.893C106.508 141.369 105.664 141.13 104.824 141.229L95.0063 142.39C94.5904 142.439 94.1882 142.569 93.8227 142.774C93.4572 142.978 93.1356 143.252 92.8762 143.581C92.6168 143.91 92.4248 144.287 92.311 144.69C92.1973 145.093 92.164 145.514 92.2133 145.93L93.3731 155.692C93.422 156.108 93.5522 156.51 93.7565 156.875C93.9608 157.241 94.2351 157.562 94.5636 157.822C94.8922 158.081 95.2687 158.273 95.6715 158.387C96.0743 158.501 96.4956 158.534 96.9114 158.485L106.73 157.324C107.332 157.253 107.901 157.012 108.37 156.627C108.752 155.745 109.142 154.888 109.539 154.055C109.539 153.965 109.53 153.875 109.52 153.784L108.363 144.022Z" fill="#D9E3F3"/>
<path d="M98.9413 130.509L95.7602 127.83C95.613 127.702 95.442 127.605 95.2571 127.545C95.0722 127.484 94.8771 127.461 94.6831 127.476C94.4891 127.491 94.3001 127.545 94.127 127.634C93.9539 127.723 93.8001 127.845 93.6747 127.994C93.5493 128.143 93.4546 128.315 93.3963 128.501C93.3379 128.686 93.317 128.882 93.3347 129.075C93.3525 129.269 93.4085 129.458 93.4996 129.629C93.5907 129.801 93.715 129.954 93.8654 130.077L97.314 132.98L97.4301 133.047C98.1063 133.433 98.9042 133.547 99.6615 133.365C100.419 133.184 101.078 132.721 101.506 132.07L106.111 125.053L109.167 120.393C109.273 120.231 109.346 120.051 109.382 119.861C109.419 119.671 109.417 119.476 109.378 119.287C109.339 119.098 109.263 118.918 109.155 118.758C109.046 118.598 108.908 118.462 108.746 118.355C108.585 118.249 108.404 118.176 108.214 118.14C108.025 118.103 107.83 118.105 107.64 118.144C107.451 118.183 107.272 118.259 107.112 118.367C106.952 118.476 106.815 118.614 106.709 118.776L104.579 122.025L99.0457 130.456C99.0343 130.473 99.0187 130.487 99.0004 130.497C98.9822 130.506 98.9618 130.51 98.9413 130.509Z" fill="#008E6D"/>
<path d="M202.522 220.018C202.508 219.972 202.485 219.929 202.454 219.891C202.424 219.854 202.386 219.823 202.343 219.801C202.301 219.778 202.254 219.764 202.206 219.759C202.158 219.755 202.109 219.76 202.063 219.774C201.994 219.795 194.976 221.854 183.08 218.91C182.985 218.886 182.885 218.901 182.801 218.952C182.718 219.002 182.658 219.084 182.634 219.179C182.611 219.273 182.626 219.374 182.677 219.457C182.727 219.541 182.809 219.601 182.903 219.624C186.461 220.528 190.102 221.061 193.77 221.216C194.294 221.235 194.799 221.244 195.276 221.244C199.669 221.244 202.109 220.528 202.278 220.477C202.36 220.453 202.431 220.401 202.479 220.33C202.509 220.284 202.529 220.233 202.536 220.179C202.544 220.125 202.539 220.07 202.522 220.018Z" fill="#231F20"/>
<path d="M143.35 132.109C143.35 131.84 143.35 131.593 143.34 131.364L143.322 131.373C143.325 131.608 143.34 131.859 143.35 132.109Z" fill="#D9E3F3"/>
<path d="M177.82 152.123L178.761 152.661C178.803 152.685 178.84 152.716 178.869 152.755C178.899 152.793 178.921 152.836 178.934 152.883C178.946 152.93 178.95 152.978 178.943 153.026C178.937 153.074 178.922 153.12 178.897 153.162C178.894 153.167 178.89 153.172 178.886 153.177L179.972 153.876L180.003 153.898C180.251 151.535 180.349 149.158 180.297 146.782L177.924 151.273C177.784 151.533 177.747 151.836 177.82 152.123Z" fill="#D9E3F3"/>
<path d="M172.291 217.439C172.841 217.566 173.404 217.145 173.55 216.51C173.623 216.206 173.582 215.886 173.433 215.611C173.371 215.491 173.283 215.386 173.177 215.303C173.07 215.22 172.947 215.161 172.816 215.13C172.752 215.114 172.685 215.106 172.619 215.106C172.415 215.109 172.216 215.175 172.052 215.296C171.803 215.484 171.628 215.754 171.559 216.058C171.49 216.363 171.531 216.681 171.674 216.959C171.737 217.078 171.824 217.183 171.931 217.266C172.037 217.349 172.16 217.408 172.291 217.439Z" fill="#D9E3F3"/>
<path d="M186.471 133.204C182.587 131.293 178.74 130.693 174.906 130.333C178.74 130.693 182.587 131.287 186.471 133.204Z" fill="#D9E3F3"/>
<path d="M143.353 129.828C143.353 129.666 143.362 129.582 143.362 129.582H143.285C143.285 129.658 143.285 129.739 143.285 129.82L143.353 129.828Z" fill="#D9E3F3"/>
<path d="M215.48 186.797C213.806 178.5 210.735 169.379 206.889 160.256C200.171 144.324 193.659 137.069 187.25 133.607L181.62 144.264C181.642 144.516 181.664 144.765 181.682 145.021C182.137 151.619 181.045 160.086 178.439 170.193C179.868 170.676 181.062 171.679 181.786 173.002C182.509 174.325 182.708 175.872 182.343 177.335C181.978 178.799 181.076 180.071 179.816 180.9C178.556 181.728 177.031 182.052 175.542 181.808C174.054 181.563 172.713 180.768 171.784 179.579C170.856 178.391 170.409 176.897 170.531 175.394C170.654 173.891 171.338 172.489 172.447 171.467C173.555 170.445 175.008 169.878 176.516 169.877C176.678 169.877 176.838 169.886 176.997 169.898C178.32 164.779 179.189 160.328 179.703 156.455C176.79 160.178 168.493 168.668 158.151 175.203C158.179 175.255 158.194 175.312 158.194 175.371C158.194 175.427 158.21 181.201 157.806 193.808C157.803 193.903 157.763 193.993 157.694 194.06C157.626 194.126 157.534 194.163 157.438 194.163H157.427C157.329 194.16 157.237 194.118 157.171 194.047C157.104 193.976 157.068 193.881 157.071 193.784C157.475 181.194 157.459 175.43 157.459 175.374C157.46 175.285 157.492 175.199 157.55 175.131C146.397 168.058 137.643 158.732 135.5 155.623C135.406 155.486 135.339 155.332 135.306 155.169C135.272 155.007 135.271 154.839 135.304 154.676C135.336 154.513 135.401 154.358 135.495 154.221C135.588 154.083 135.709 153.966 135.849 153.876L137.191 153.012L137.18 153C137.156 152.959 137.14 152.913 137.134 152.865C137.127 152.817 137.13 152.768 137.142 152.722C137.155 152.675 137.176 152.631 137.205 152.593C137.235 152.554 137.271 152.522 137.313 152.498L138.008 152.089C138.073 151.813 138.036 151.524 137.904 151.273L134.846 145.487C133.422 152.265 133.554 159.452 133.73 162.846C134.763 162.762 135.787 163.083 136.587 163.742C137.386 164.401 137.898 165.345 138.012 166.374L138.6 171.69C138.658 172.21 138.612 172.737 138.465 173.239C138.319 173.742 138.075 174.211 137.747 174.619C137.42 175.027 137.015 175.367 136.556 175.618C136.097 175.87 135.593 176.029 135.072 176.085L134.589 176.138C133.969 176.206 133.347 176.025 132.861 175.635C132.374 175.245 132.063 174.678 131.994 174.058L131.052 165.5C131.001 165.035 131.09 164.565 131.308 164.151C131.525 163.736 131.862 163.396 132.274 163.174C132.127 160.558 131.98 155.429 132.619 149.974C132.869 147.786 133.262 145.618 133.795 143.482L128.397 133.267C124.902 135.022 121.134 137.706 117.519 141.793C114.71 144.962 111.99 148.976 109.555 154.053C109.163 154.882 108.773 155.739 108.386 156.625C107.099 159.641 105.991 162.731 105.068 165.878C104.704 167.108 104.352 168.377 104.019 169.7C103.975 169.872 103.932 170.042 103.888 170.213C93.0098 213.101 96.3262 215.549 103.65 218.967C107.248 220.645 115.322 221.546 122.629 222.03C122.444 231.144 122.423 240.931 122.439 247.608H129.281C129.378 247.608 129.472 247.647 129.541 247.716C129.609 247.785 129.648 247.878 129.648 247.976H140.447C140.447 247.927 140.456 247.879 140.474 247.835C140.493 247.79 140.52 247.749 140.554 247.715C140.588 247.681 140.629 247.654 140.673 247.636C140.718 247.617 140.766 247.608 140.814 247.608H195.559C195.082 240.323 194.331 228.939 193.783 221.226C190.116 221.071 186.474 220.538 182.917 219.634C182.87 219.622 182.825 219.602 182.787 219.573C182.748 219.544 182.715 219.508 182.69 219.467C182.665 219.426 182.648 219.38 182.641 219.332C182.634 219.284 182.636 219.235 182.648 219.189C182.659 219.142 182.68 219.098 182.708 219.059C182.737 219.02 182.773 218.987 182.815 218.962C182.856 218.937 182.902 218.92 182.95 218.913C182.997 218.906 183.046 218.908 183.093 218.92C194.99 221.86 202.007 219.802 202.077 219.784C202.123 219.77 202.171 219.765 202.219 219.769C202.267 219.774 202.314 219.788 202.357 219.81C202.399 219.833 202.437 219.864 202.468 219.901C202.498 219.939 202.521 219.982 202.535 220.028C202.551 220.079 202.555 220.132 202.548 220.185C202.541 220.237 202.522 220.288 202.493 220.332C209.941 218.849 214.126 214.282 215.886 207.74C217.413 202.013 217.093 194.788 215.48 186.797ZM201.684 204.499C199.11 211.114 184.894 220.022 176.641 219.696C176.641 219.696 176.985 218.173 177.336 215.933C176.97 217.967 176.644 219.608 176.615 219.768C176.602 219.839 176.568 219.905 176.518 219.957C176.468 220.01 176.403 220.046 176.332 220.062C165.068 222.524 151.679 223.124 141.308 223.124C131.553 223.124 124.468 222.593 124.324 222.581C124.276 222.578 124.228 222.565 124.185 222.543C124.142 222.521 124.104 222.491 124.072 222.454C124.008 222.38 123.977 222.283 123.984 222.186C123.992 222.088 124.037 221.998 124.112 221.934C124.186 221.871 124.282 221.839 124.38 221.846C124.674 221.868 154.209 224.078 175.94 219.391C176.213 217.989 177.61 210.755 177.663 208.416C177.824 201.303 175.899 199.666 175.605 199.46C172.835 198.969 170.036 198.5 167.235 198.053C168.308 199.67 170.796 205.06 167.97 217.941C167.953 218.023 167.908 218.098 167.842 218.151C167.777 218.205 167.695 218.234 167.611 218.235C167.585 218.237 167.558 218.237 167.532 218.235C167.484 218.224 167.439 218.204 167.4 218.177C167.36 218.149 167.326 218.113 167.3 218.072C167.274 218.031 167.256 217.986 167.248 217.938C167.24 217.89 167.241 217.841 167.252 217.794C168.996 209.856 168.637 204.897 168.028 202.138C167.374 199.164 166.298 198.043 166.288 198.032C166.251 197.995 166.223 197.949 166.206 197.9C139.487 193.689 113.012 191.504 112.717 191.481C112.668 191.477 112.621 191.463 112.578 191.441C112.535 191.419 112.497 191.389 112.466 191.352C112.402 191.277 112.371 191.18 112.379 191.083C112.387 190.985 112.434 190.895 112.508 190.832C112.583 190.769 112.679 190.738 112.777 190.746C112.83 190.746 113.735 190.823 115.339 190.968C111.989 184.617 113.203 181.424 114.3 180.694C114.395 180.632 114.496 180.58 114.601 180.539V180.526C114.586 180.481 114.58 180.433 114.583 180.385C114.587 180.337 114.599 180.29 114.621 180.247C114.642 180.205 114.672 180.166 114.708 180.135C114.744 180.104 114.787 180.08 114.832 180.065C114.901 180.041 115.832 179.754 117.527 180.225C116.464 177.116 117.171 175.18 117.904 174.133C117.994 174.005 118.114 173.9 118.253 173.828C118.392 173.756 118.547 173.719 118.704 173.721C118.861 173.723 119.015 173.763 119.152 173.837C119.29 173.912 119.408 174.019 119.495 174.149C120.049 174.975 121.046 176.326 122.745 178.256C122.979 173.034 122.885 165.894 122.885 165.808C122.884 165.76 122.893 165.712 122.91 165.668C122.928 165.623 122.955 165.582 122.988 165.547C123.022 165.513 123.062 165.485 123.106 165.466C123.15 165.447 123.198 165.437 123.246 165.437C123.343 165.437 123.435 165.475 123.504 165.543C123.572 165.61 123.612 165.702 123.614 165.798C123.614 165.888 123.717 173.745 123.437 179.037C124.694 180.426 126.28 182.074 128.271 184.003C134.036 189.589 135.415 192.117 135.74 193.064C147.398 194.399 161.988 196.298 175.805 198.757C175.839 198.763 175.872 198.774 175.903 198.789C176.01 198.847 176.108 198.919 176.197 199.001C177.079 197.802 182.412 190.86 189.486 187.769C189.192 175.072 190.028 165.026 190.04 164.894C190.044 164.846 190.058 164.799 190.08 164.756C190.103 164.713 190.133 164.675 190.17 164.644C190.207 164.612 190.25 164.589 190.296 164.574C190.342 164.559 190.391 164.554 190.439 164.558C190.488 164.562 190.535 164.576 190.577 164.598C190.62 164.621 190.659 164.651 190.69 164.688C190.721 164.725 190.745 164.768 190.759 164.814C190.774 164.86 190.779 164.909 190.775 164.957C190.763 165.087 189.945 174.953 190.218 187.469C193.999 185.987 198.238 185.658 202.54 187.883C202.737 187.985 202.91 188.128 203.048 188.302C203.185 188.477 203.283 188.679 203.335 188.895C203.513 189.646 203.535 190.978 202.541 192.93C200.884 196.165 204.254 197.881 201.684 204.499ZM170.843 215.896C170.948 215.413 171.229 214.985 171.63 214.696C171.822 214.554 172.042 214.455 172.275 214.406C172.508 214.357 172.75 214.359 172.982 214.412C173.215 214.465 173.433 214.568 173.623 214.713C173.812 214.858 173.968 215.042 174.079 215.253C174.315 215.687 174.383 216.193 174.27 216.673C174.064 217.576 173.307 218.196 172.488 218.196C172.189 218.196 171.895 218.113 171.638 217.958C171.382 217.803 171.173 217.58 171.035 217.314C170.797 216.881 170.728 216.376 170.84 215.896H170.843Z" fill="#D9E3F3"/>
<path d="M190.772 164.946C190.777 164.898 190.771 164.849 190.756 164.803C190.742 164.757 190.718 164.714 190.687 164.677C190.656 164.64 190.618 164.609 190.575 164.587C190.532 164.565 190.485 164.551 190.436 164.547C190.388 164.543 190.34 164.548 190.293 164.563C190.247 164.577 190.204 164.601 190.167 164.632C190.13 164.663 190.1 164.701 190.077 164.744C190.055 164.787 190.042 164.834 190.037 164.883C190.026 165.015 189.192 175.061 189.483 187.757C189.724 187.653 189.969 187.555 190.218 187.463C189.942 174.939 190.761 165.081 190.772 164.946Z" fill="#90C9ED"/>
<path d="M203.332 188.883C203.28 188.667 203.182 188.465 203.045 188.291C202.907 188.116 202.734 187.973 202.537 187.872C198.235 185.646 193.996 185.975 190.215 187.457C189.969 187.555 189.724 187.653 189.48 187.751C182.406 190.838 177.075 197.784 176.191 198.983C176.884 199.595 178.543 201.759 178.396 208.424C178.362 209.923 177.808 213.259 177.335 215.921C176.984 218.161 176.64 219.684 176.64 219.684C184.892 220.01 199.109 211.105 201.683 204.487C204.257 197.869 200.886 196.154 202.54 192.906C203.532 190.966 203.51 189.63 203.332 188.883ZM193.837 199.943C193.783 199.944 193.728 199.932 193.679 199.908C193.63 199.885 193.586 199.851 193.552 199.808C193.491 199.732 193.462 199.635 193.472 199.538C193.482 199.441 193.53 199.352 193.605 199.291C196.692 196.792 201.35 195.266 201.543 195.203C201.589 195.187 201.638 195.181 201.686 195.185C201.734 195.189 201.781 195.202 201.825 195.224C201.868 195.246 201.906 195.276 201.938 195.313C201.969 195.35 201.993 195.393 202.008 195.439C202.023 195.485 202.028 195.534 202.024 195.582C202.02 195.631 202.007 195.678 201.984 195.721C201.962 195.764 201.931 195.802 201.894 195.833C201.857 195.864 201.814 195.888 201.768 195.902C201.721 195.917 197.037 197.443 194.065 199.861C194.001 199.914 193.92 199.943 193.837 199.943ZM202.306 199.702C202.34 199.736 202.367 199.777 202.386 199.822C202.404 199.866 202.414 199.914 202.414 199.962C202.414 200.011 202.404 200.059 202.386 200.103C202.367 200.148 202.34 200.188 202.306 200.223C200.491 201.98 198.418 203.451 196.16 204.584C196.109 204.608 196.054 204.621 195.998 204.621C195.915 204.62 195.835 204.592 195.77 204.541C195.706 204.489 195.66 204.417 195.642 204.336C195.623 204.256 195.632 204.171 195.667 204.096C195.703 204.022 195.762 203.961 195.836 203.924C199.254 202.254 201.758 199.732 201.783 199.707C201.816 199.671 201.857 199.643 201.902 199.624C201.946 199.605 201.995 199.595 202.043 199.594C202.092 199.594 202.14 199.603 202.185 199.622C202.231 199.64 202.271 199.668 202.306 199.702ZM202.376 191.899C202.3 191.885 196.427 190.812 191.813 194.878C191.777 194.91 191.735 194.934 191.689 194.95C191.643 194.965 191.595 194.972 191.547 194.969C191.499 194.966 191.452 194.953 191.408 194.932C191.365 194.911 191.326 194.882 191.294 194.845C191.262 194.809 191.238 194.767 191.222 194.721C191.206 194.676 191.2 194.627 191.203 194.579C191.206 194.531 191.218 194.484 191.239 194.44C191.261 194.397 191.29 194.358 191.326 194.326C196.227 190.008 202.263 191.129 202.518 191.178C202.613 191.197 202.697 191.254 202.751 191.335C202.805 191.417 202.824 191.516 202.805 191.612C202.785 191.708 202.729 191.792 202.647 191.846C202.566 191.9 202.466 191.919 202.371 191.899H202.376Z" fill="#FBC3A8"/>
<path d="M202.807 191.61C202.816 191.562 202.816 191.513 202.806 191.465C202.797 191.418 202.778 191.373 202.75 191.332C202.723 191.292 202.688 191.258 202.647 191.231C202.606 191.205 202.561 191.187 202.513 191.178C202.259 191.129 196.223 190.002 191.322 194.326C191.286 194.358 191.256 194.397 191.235 194.44C191.214 194.484 191.201 194.531 191.198 194.579C191.195 194.627 191.202 194.676 191.218 194.721C191.233 194.767 191.258 194.809 191.29 194.845C191.322 194.881 191.36 194.911 191.404 194.932C191.447 194.953 191.494 194.966 191.542 194.969C191.591 194.972 191.639 194.965 191.685 194.95C191.73 194.934 191.772 194.91 191.809 194.878C196.423 190.812 202.296 191.885 202.372 191.899C202.42 191.909 202.469 191.91 202.516 191.9C202.564 191.891 202.609 191.872 202.65 191.846C202.69 191.819 202.725 191.784 202.752 191.743C202.779 191.703 202.798 191.658 202.807 191.61Z" fill="#EB7360"/>
<path d="M202.01 195.439C201.98 195.347 201.914 195.27 201.827 195.225C201.741 195.181 201.64 195.173 201.547 195.203C201.35 195.266 196.687 196.784 193.609 199.291C193.534 199.352 193.486 199.442 193.476 199.538C193.466 199.635 193.495 199.732 193.556 199.808C193.618 199.883 193.707 199.931 193.804 199.941C193.901 199.951 193.998 199.922 194.074 199.861C197.046 197.443 201.729 195.917 201.776 195.902C201.869 195.872 201.945 195.806 201.989 195.719C202.033 195.632 202.04 195.532 202.01 195.439Z" fill="#EB7360"/>
<path d="M201.787 199.707C201.762 199.732 199.258 202.254 195.841 203.924C195.767 203.961 195.707 204.022 195.672 204.097C195.636 204.171 195.627 204.256 195.646 204.337C195.665 204.417 195.71 204.489 195.775 204.541C195.839 204.593 195.92 204.621 196.002 204.621C196.058 204.621 196.114 204.608 196.164 204.584C198.422 203.451 200.495 201.98 202.31 200.223C202.345 200.189 202.373 200.148 202.391 200.103C202.41 200.058 202.42 200.01 202.42 199.961C202.42 199.912 202.41 199.864 202.392 199.819C202.373 199.774 202.345 199.733 202.311 199.699C202.276 199.665 202.235 199.638 202.189 199.62C202.144 199.602 202.096 199.593 202.047 199.593C201.998 199.594 201.95 199.604 201.905 199.624C201.861 199.643 201.82 199.672 201.787 199.707Z" fill="#EB7360"/>
<path d="M123.614 165.786C123.612 165.69 123.572 165.598 123.504 165.531C123.435 165.463 123.342 165.425 123.246 165.425C123.198 165.425 123.15 165.435 123.106 165.454C123.062 165.474 123.022 165.501 122.988 165.536C122.954 165.57 122.928 165.611 122.91 165.656C122.892 165.701 122.884 165.749 122.885 165.797C122.885 165.882 122.979 173.022 122.745 178.245C122.965 178.496 123.198 178.755 123.443 179.025C123.717 173.733 123.614 165.876 123.614 165.786Z" fill="#90C9ED"/>
<path d="M128.271 183.991C126.28 182.062 124.694 180.415 123.437 179.025C123.192 178.755 122.96 178.496 122.739 178.245C121.04 176.315 120.043 174.964 119.489 174.138C119.402 174.007 119.284 173.9 119.146 173.826C119.009 173.751 118.855 173.711 118.698 173.71C118.541 173.708 118.386 173.745 118.247 173.816C118.108 173.888 117.988 173.993 117.898 174.122C117.163 175.168 116.458 177.104 117.521 180.213C118.969 180.613 120.975 181.567 123.484 183.712C123.541 183.761 123.582 183.826 123.601 183.898C123.62 183.971 123.616 184.048 123.59 184.118C123.564 184.189 123.518 184.249 123.456 184.292C123.394 184.335 123.321 184.358 123.246 184.359C123.158 184.359 123.073 184.328 123.007 184.27C117.922 179.924 115.083 180.742 115.055 180.751C114.965 180.779 114.868 180.772 114.784 180.73C114.699 180.689 114.634 180.616 114.601 180.528C114.496 180.569 114.395 180.62 114.3 180.682C113.203 181.417 111.989 184.606 115.339 190.956C119.039 191.288 126.461 191.985 135.74 193.052C135.415 192.105 134.036 189.577 128.271 183.991ZM121.813 187.406C121.786 187.446 121.751 187.48 121.71 187.506C121.67 187.533 121.625 187.551 121.577 187.56C121.529 187.569 121.481 187.568 121.433 187.558C121.386 187.548 121.341 187.529 121.301 187.501C117.429 184.855 114.779 186.552 114.667 186.619C114.627 186.646 114.582 186.665 114.535 186.675C114.488 186.684 114.439 186.684 114.392 186.675C114.344 186.666 114.299 186.647 114.259 186.621C114.219 186.594 114.184 186.56 114.157 186.519C114.13 186.479 114.111 186.434 114.102 186.387C114.092 186.34 114.092 186.291 114.102 186.244C114.111 186.196 114.129 186.151 114.156 186.111C114.183 186.071 114.217 186.036 114.257 186.009C114.384 185.924 117.413 183.943 121.717 186.891C121.758 186.919 121.793 186.954 121.819 186.994C121.846 187.035 121.864 187.081 121.873 187.129C121.882 187.176 121.882 187.226 121.871 187.273C121.861 187.321 121.841 187.366 121.813 187.406Z" fill="#FBC3A8"/>
<path d="M115.055 180.751C115.083 180.743 117.922 179.924 123.007 184.271C123.073 184.328 123.158 184.36 123.246 184.359C123.321 184.359 123.395 184.336 123.456 184.293C123.518 184.25 123.565 184.189 123.59 184.118C123.616 184.048 123.62 183.971 123.601 183.899C123.582 183.826 123.542 183.761 123.484 183.712C120.975 181.567 118.969 180.613 117.521 180.213C115.826 179.743 114.895 180.03 114.826 180.053C114.781 180.068 114.739 180.092 114.702 180.124C114.666 180.155 114.636 180.193 114.615 180.236C114.594 180.279 114.581 180.326 114.577 180.374C114.574 180.421 114.58 180.469 114.595 180.515V180.528C114.628 180.618 114.694 180.691 114.78 180.733C114.866 180.775 114.965 180.781 115.055 180.751Z" fill="#EB7360"/>
<path d="M121.716 186.896C117.412 183.948 114.382 185.93 114.256 186.014C114.175 186.068 114.119 186.152 114.1 186.248C114.081 186.344 114.102 186.443 114.156 186.524C114.21 186.605 114.295 186.661 114.39 186.679C114.486 186.698 114.585 186.678 114.666 186.624C114.778 186.55 117.428 184.85 121.3 187.506C121.34 187.535 121.385 187.555 121.433 187.566C121.48 187.577 121.53 187.579 121.578 187.571C121.627 187.562 121.673 187.544 121.714 187.518C121.755 187.491 121.791 187.457 121.819 187.416C121.847 187.376 121.866 187.33 121.876 187.282C121.886 187.234 121.886 187.185 121.876 187.137C121.867 187.089 121.848 187.043 121.82 187.002C121.793 186.962 121.757 186.927 121.716 186.9V186.896Z" fill="#EB7360"/>
<path d="M176.197 198.99C176.108 198.907 176.01 198.836 175.903 198.778C175.872 198.762 175.839 198.751 175.805 198.746C161.987 196.291 147.398 194.387 135.74 193.052C126.461 191.991 119.039 191.288 115.339 190.956C113.735 190.809 112.83 190.739 112.777 190.734C112.729 190.73 112.68 190.736 112.634 190.751C112.588 190.765 112.545 190.789 112.508 190.82C112.471 190.852 112.441 190.89 112.419 190.933C112.397 190.976 112.383 191.023 112.379 191.072C112.375 191.12 112.381 191.168 112.396 191.214C112.411 191.261 112.434 191.303 112.466 191.34C112.497 191.377 112.535 191.408 112.578 191.43C112.622 191.452 112.669 191.465 112.717 191.469C113.011 191.493 139.487 193.674 166.206 197.889C166.223 197.938 166.251 197.983 166.288 198.021C166.298 198.031 167.374 199.153 168.028 202.127C168.637 204.886 168.996 209.843 167.252 217.782C167.241 217.829 167.24 217.878 167.248 217.926C167.256 217.974 167.274 218.02 167.3 218.061C167.326 218.102 167.36 218.137 167.4 218.165C167.439 218.193 167.484 218.213 167.532 218.223C167.558 218.226 167.585 218.226 167.611 218.223C167.695 218.223 167.777 218.193 167.843 218.14C167.908 218.086 167.953 218.012 167.97 217.929C170.798 205.049 168.309 199.653 167.235 198.042C170.036 198.483 172.835 198.957 175.605 199.448C175.899 199.654 177.82 201.292 177.663 208.405C177.61 210.744 176.213 217.978 175.94 219.38C154.209 224.066 124.677 221.857 124.38 221.835C124.331 221.831 124.283 221.837 124.237 221.852C124.191 221.867 124.148 221.891 124.112 221.923C124.038 221.987 123.992 222.077 123.984 222.175C123.977 222.272 124.009 222.368 124.072 222.443C124.136 222.517 124.226 222.563 124.324 222.57C124.471 222.582 131.553 223.112 141.308 223.112C151.679 223.112 165.068 222.513 176.332 220.05C176.403 220.035 176.468 219.998 176.518 219.946C176.568 219.894 176.602 219.828 176.615 219.756C176.644 219.609 176.97 217.956 177.336 215.921C177.817 213.253 178.365 209.918 178.398 208.424C178.546 201.765 176.89 199.601 176.197 198.99Z" fill="#90C9ED"/>
<path d="M172.128 218.157C172.245 218.183 172.365 218.196 172.485 218.196C173.304 218.196 174.061 217.576 174.267 216.673C174.38 216.193 174.312 215.687 174.076 215.253C173.965 215.043 173.809 214.858 173.62 214.713C173.43 214.568 173.212 214.465 172.979 214.412C172.747 214.359 172.506 214.357 172.272 214.406C172.039 214.455 171.819 214.554 171.627 214.696C171.232 214.99 170.955 215.416 170.847 215.897C170.739 216.378 170.807 216.881 171.039 217.316C171.15 217.525 171.305 217.709 171.493 217.854C171.681 217.999 171.897 218.102 172.128 218.157ZM171.558 216.058C171.623 215.752 171.799 215.48 172.052 215.296C172.216 215.175 172.415 215.109 172.619 215.106C172.686 215.106 172.752 215.114 172.816 215.13C172.947 215.161 173.07 215.22 173.177 215.303C173.284 215.386 173.371 215.491 173.434 215.611C173.582 215.886 173.623 216.206 173.55 216.51C173.403 217.148 172.841 217.566 172.291 217.439C172.16 217.408 172.037 217.349 171.931 217.266C171.824 217.183 171.737 217.078 171.674 216.959C171.526 216.683 171.484 216.362 171.558 216.058Z" fill="#90C9ED"/>
<path d="M179.972 153.876L178.886 153.177C178.853 153.229 178.808 153.272 178.754 153.302C178.7 153.331 178.64 153.347 178.578 153.347C178.515 153.347 178.452 153.33 178.396 153.299L174.574 151.108C174.492 151.059 174.433 150.979 174.408 150.886C174.384 150.793 174.397 150.695 174.445 150.611C174.493 150.528 174.571 150.467 174.663 150.44C174.755 150.414 174.854 150.425 174.939 150.47L177.827 152.123C177.752 151.837 177.787 151.534 177.924 151.273L180.297 146.782C180.103 139.95 178.386 135.987 176.5 133.699C174.614 131.412 172.444 130.612 171.051 130.348C172.128 152.506 159.166 173.303 157.929 175.231V175.247L157.838 175.378L157.737 175.249C145.89 159.789 143.712 140.511 143.35 132.109C143.34 131.853 143.331 131.607 143.322 131.374C138.58 133.823 136.101 139.494 134.842 145.486L137.899 151.272C138.031 151.522 138.068 151.812 138.004 152.087L141.301 150.154C141.342 150.127 141.389 150.108 141.438 150.099C141.488 150.091 141.538 150.092 141.587 150.103C141.635 150.115 141.681 150.136 141.721 150.165C141.761 150.195 141.795 150.233 141.82 150.276C141.846 150.319 141.862 150.367 141.868 150.416C141.874 150.466 141.87 150.516 141.856 150.564C141.842 150.612 141.818 150.656 141.787 150.695C141.755 150.734 141.716 150.765 141.671 150.788L137.68 153.13C137.623 153.162 137.559 153.18 137.493 153.18C137.432 153.18 137.372 153.164 137.318 153.135C137.264 153.105 137.219 153.062 137.186 153.011L135.844 153.875C135.704 153.965 135.584 154.082 135.49 154.219C135.397 154.357 135.332 154.511 135.299 154.674C135.267 154.837 135.267 155.005 135.301 155.168C135.335 155.331 135.401 155.485 135.496 155.621C137.643 158.73 146.397 168.056 157.546 175.13C157.487 175.197 157.455 175.283 157.455 175.372C157.455 175.428 157.471 181.192 157.067 193.783C157.064 193.88 157.1 193.974 157.166 194.046C157.233 194.117 157.325 194.158 157.422 194.162H157.434C157.529 194.162 157.621 194.125 157.69 194.058C157.758 193.992 157.798 193.902 157.802 193.806C158.206 181.199 158.19 175.431 158.19 175.369C158.189 175.311 158.174 175.253 158.147 175.202C168.488 168.666 176.785 160.177 179.699 156.453C179.816 155.571 179.914 154.719 179.993 153.897L179.972 153.876Z" fill="#90C9ED"/>
<path d="M177.597 132.722C179.827 135.409 181.178 139.291 181.62 144.264L187.25 133.607C186.991 133.469 186.734 133.335 186.475 133.207C182.592 131.296 178.745 130.696 174.911 130.336C175.926 130.985 176.832 131.791 177.597 132.722Z" fill="#90C9ED"/>
<path d="M135.562 138.246C137.364 134.199 139.862 131.389 142.987 129.895C143.079 129.851 143.179 129.827 143.281 129.825C143.281 129.744 143.281 129.663 143.281 129.586H143.273L142.511 129.647L142.381 129.657L142.099 129.682L141.915 129.698L141.652 129.723L141.458 129.742L141.21 129.767L141.005 129.789L140.77 129.816L140.563 129.839L140.339 129.864L140.11 129.894L139.917 129.917L139.521 129.97L139.362 129.992L139.115 130.029L138.946 130.054L138.718 130.089L138.553 130.117L138.331 130.154L138.174 130.182L137.952 130.221L137.805 130.249L137.57 130.296L137.452 130.32C137.336 130.343 137.221 130.367 137.111 130.392C137.08 130.399 137.048 130.404 137.016 130.408L136.564 130.489H136.538C136.391 130.515 136.244 130.545 136.097 130.576H136.068C135.921 130.607 135.76 130.64 135.604 130.674H135.591C135.456 130.705 135.318 130.736 135.18 130.77L134.93 130.83L134.762 130.871L134.468 130.948L134.339 130.981L134.017 131.071L133.91 131.101L133.567 131.2L133.474 131.227L133.113 131.339L133.035 131.362L132.653 131.487L132.594 131.506L132.187 131.644L132.15 131.658L131.719 131.805H131.703C131.568 131.855 131.433 131.905 131.296 131.952L131.039 132.052L130.883 132.113L130.602 132.228L130.465 132.282L130.171 132.406L130.043 132.462L129.749 132.593L129.625 132.648L129.331 132.787L129.203 132.845L128.9 132.992L128.772 133.054L128.466 133.201L128.397 133.235L133.795 143.45C134.237 141.669 134.828 139.928 135.562 138.246Z" fill="#90C9ED"/>
<path d="M137.493 153.181C137.559 153.181 137.623 153.164 137.68 153.131L141.671 150.79C141.716 150.767 141.755 150.735 141.787 150.697C141.819 150.658 141.842 150.613 141.856 150.565C141.87 150.518 141.874 150.467 141.868 150.418C141.862 150.368 141.846 150.32 141.82 150.277C141.795 150.234 141.762 150.197 141.721 150.167C141.681 150.137 141.635 150.116 141.587 150.105C141.538 150.093 141.488 150.092 141.438 150.101C141.389 150.11 141.342 150.128 141.301 150.156L138.004 152.089L137.308 152.498C137.267 152.522 137.23 152.554 137.201 152.593C137.172 152.631 137.15 152.675 137.138 152.722C137.126 152.768 137.123 152.817 137.129 152.865C137.136 152.913 137.152 152.959 137.176 153L137.186 153.012C137.219 153.064 137.264 153.107 137.318 153.136C137.372 153.166 137.432 153.181 137.493 153.181Z" fill="#75B2E1"/>
<path d="M178.761 152.661L177.82 152.123L174.93 150.47C174.846 150.425 174.747 150.414 174.654 150.44C174.562 150.467 174.484 150.528 174.436 150.611C174.389 150.695 174.375 150.793 174.4 150.886C174.424 150.979 174.483 151.059 174.565 151.108L178.387 153.299C178.443 153.33 178.506 153.347 178.57 153.347C178.631 153.347 178.692 153.331 178.745 153.302C178.799 153.272 178.844 153.229 178.877 153.177C178.881 153.172 178.885 153.167 178.889 153.162C178.938 153.079 178.952 152.979 178.928 152.885C178.904 152.791 178.844 152.71 178.761 152.661Z" fill="#75B2E1"/>
<path d="M133.129 162.91C132.828 162.943 132.536 163.034 132.27 163.179C131.859 163.401 131.522 163.741 131.305 164.155C131.087 164.57 130.998 165.039 131.049 165.504L131.991 174.063C132.059 174.683 132.371 175.25 132.858 175.64C133.344 176.03 133.966 176.211 134.586 176.143L135.069 176.09C135.59 176.033 136.094 175.874 136.553 175.623C137.012 175.371 137.416 175.032 137.744 174.623C138.072 174.215 138.316 173.746 138.462 173.244C138.609 172.741 138.654 172.215 138.597 171.695L138.009 166.379C137.895 165.35 137.383 164.405 136.584 163.747C135.784 163.088 134.76 162.767 133.727 162.851L133.614 162.861L133.129 162.91Z" fill="white"/>
<path d="M169.591 130.216C170.078 130.202 170.566 130.244 171.043 130.342C172.437 130.608 174.601 131.396 176.493 133.694C178.384 135.991 180.096 139.95 180.29 146.777C180.341 149.153 180.243 151.53 179.996 153.893C179.913 154.714 179.815 155.566 179.702 156.449C179.187 160.323 178.318 164.774 176.995 169.893C177.486 169.931 177.971 170.03 178.437 170.187C181.044 160.079 182.136 151.612 181.68 145.014C181.663 144.759 181.641 144.509 181.618 144.257C181.177 139.284 179.825 135.402 177.595 132.715C176.829 131.782 175.922 130.976 174.905 130.326C172.161 128.586 169.629 128.733 169.49 128.741H169.445L169.51 130.2C169.537 130.207 169.564 130.212 169.591 130.216Z" fill="#1F3966"/>
<path d="M176.516 169.877C174.908 169.872 173.362 170.497 172.21 171.618C171.057 172.74 170.391 174.269 170.354 175.877C170.317 177.484 170.911 179.042 172.01 180.216C173.109 181.39 174.625 182.086 176.231 182.155C177.838 182.224 179.407 181.66 180.602 180.584C181.798 179.508 182.523 178.007 182.624 176.402C182.724 174.797 182.191 173.217 181.139 172.001C180.086 170.785 178.599 170.03 176.997 169.898C176.841 169.886 176.678 169.877 176.516 169.877ZM178.574 175.882C178.574 176.289 178.453 176.687 178.227 177.026C178.001 177.364 177.68 177.628 177.304 177.784C176.928 177.94 176.514 177.98 176.115 177.901C175.715 177.821 175.349 177.625 175.061 177.338C174.773 177.05 174.577 176.683 174.498 176.284C174.418 175.885 174.459 175.471 174.615 175.095C174.77 174.719 175.034 174.397 175.373 174.171C175.711 173.945 176.109 173.824 176.516 173.824C176.787 173.824 177.055 173.877 177.305 173.98C177.555 174.083 177.783 174.234 177.974 174.426C178.166 174.617 178.318 174.844 178.421 175.094C178.525 175.344 178.578 175.612 178.578 175.882H178.574Z" fill="white"/>
<path d="M177.974 177.341C178.779 176.536 178.779 175.23 177.974 174.424C177.168 173.619 175.863 173.619 175.057 174.424C174.252 175.23 174.252 176.536 175.057 177.341C175.863 178.147 177.168 178.147 177.974 177.341Z" fill="#90C9ED"/>
<path d="M169.543 130.918L169.512 130.214L169.447 128.756L168.947 117.378C168.547 117.857 158.854 129.272 144.87 126.051C144.848 127.383 144.826 128.587 144.81 129.447C144.794 130.268 144.783 130.77 144.783 130.77C144.783 130.77 154.969 139.4 169.543 130.918Z" fill="#FBC3A8"/>
<path d="M168.947 117.378L168.96 117.362C165.34 120.596 160.981 122.507 156.229 122.507C152.089 122.507 148.232 121.106 144.91 118.638L144.845 126.041L144.877 126.048C158.854 129.272 168.547 117.857 168.947 117.378Z" fill="#EB7360"/>
<path d="M141.46 92.1308C141.517 98.3797 144.547 103.432 148.263 103.432C152.017 103.432 155.07 98.2871 155.07 91.95C155.07 85.6128 152.017 80.4663 148.263 80.4663C144.588 80.4663 141.587 85.4055 141.463 91.553C141.521 91.6571 141.547 91.7766 141.536 91.8956C141.527 91.9784 141.501 92.0585 141.46 92.1308ZM148.263 91.7324C149.242 91.7324 150.027 93.2347 150.027 95.0899C150.027 96.945 149.234 98.4474 148.263 98.4474C147.291 98.4474 146.499 96.9435 146.499 95.0899C146.499 93.2362 147.285 91.728 148.263 91.728V91.7324Z" fill="#FBC3A8"/>
<path d="M163.108 103.432C166.861 103.432 169.914 98.2871 169.914 91.95C169.914 85.6128 166.861 80.4663 163.108 80.4663C159.355 80.4663 156.301 85.6113 156.301 91.95C156.301 98.2886 159.348 103.432 163.108 103.432ZM163.596 91.728C164.575 91.728 165.36 93.2303 165.36 95.0855C165.36 96.9406 164.568 98.4429 163.596 98.4429C162.624 98.4429 161.832 96.9391 161.832 95.0855C161.832 93.2318 162.619 91.728 163.596 91.728Z" fill="#FBC3A8"/>
<path d="M168.96 117.362C172.55 114.148 175.414 109.622 177.213 104.336C177.691 104.415 178.174 104.455 178.658 104.455C182.893 104.455 186.326 101.497 186.326 97.8488C186.326 94.8765 184.047 92.3628 180.913 91.5278C180.396 91.3922 179.868 91.3041 179.336 91.2647H179.303C179.211 91.2647 179.117 91.2515 179.024 91.2485H178.99C178.88 91.2485 178.77 91.2485 178.658 91.2485C178.066 91.2481 177.475 91.3072 176.894 91.4249C176.241 91.5576 175.605 91.7668 175.001 92.0482L171.079 92.4187C171.008 95.5762 170.219 98.5368 168.834 100.798C167.326 103.258 165.291 104.62 163.101 104.62C160.911 104.62 158.878 103.264 157.368 100.798C156.597 99.5084 156.027 98.1097 155.676 96.6493C155.326 98.1098 154.756 99.5086 153.986 100.798C152.477 103.258 150.443 104.62 148.253 104.62C146.062 104.62 144.031 103.264 142.52 100.798C141.129 98.5265 140.338 95.5483 140.273 92.3746L133.106 91.6984C132.988 91.6867 132.876 91.6396 132.785 91.5632C132.694 91.4869 132.629 91.3849 132.597 91.2706C128.653 91.5264 125.538 94.3738 125.538 97.8488C125.538 101.497 128.971 104.455 133.204 104.455C133.839 104.455 134.473 104.387 135.093 104.252C137.104 110.376 140.554 115.424 144.902 118.639C148.232 121.107 152.089 122.508 156.221 122.508C160.981 122.508 165.34 120.603 168.96 117.362ZM180.36 101.118C181.882 100.545 182.859 99.2615 182.859 97.8488C182.859 96.6376 182.143 95.5174 180.948 94.853C180.863 94.8056 180.8 94.7263 180.773 94.6326C180.747 94.5389 180.758 94.4384 180.806 94.3532C180.853 94.268 180.932 94.2051 181.026 94.1784C181.12 94.1516 181.22 94.1632 181.305 94.2106C182.739 95.0073 183.596 96.3671 183.596 97.8488C183.596 99.5702 182.42 101.124 180.613 101.806C180.522 101.84 180.421 101.837 180.332 101.797C180.243 101.757 180.174 101.683 180.14 101.591C180.105 101.5 180.109 101.399 180.149 101.31C180.189 101.222 180.263 101.152 180.354 101.118H180.36ZM164.099 111.16C164.284 111.138 168.656 110.557 170.147 104.959C170.172 104.865 170.233 104.784 170.317 104.735C170.402 104.686 170.502 104.673 170.597 104.698C170.691 104.723 170.771 104.784 170.821 104.868C170.87 104.953 170.883 105.053 170.858 105.147C169.241 111.246 164.233 111.883 164.183 111.889H164.14C164.092 111.891 164.044 111.885 163.998 111.869C163.952 111.853 163.91 111.828 163.874 111.796C163.838 111.763 163.809 111.724 163.788 111.681C163.767 111.637 163.755 111.59 163.752 111.542C163.749 111.494 163.756 111.445 163.772 111.4C163.788 111.354 163.813 111.312 163.845 111.276C163.878 111.24 163.916 111.211 163.96 111.19C164.004 111.169 164.051 111.156 164.099 111.154V111.16ZM132.619 102.565H132.584C129.83 102.294 127.755 100.267 127.755 97.8503C127.755 96.0231 128.931 94.3899 130.808 93.5873C130.852 93.568 130.9 93.5576 130.949 93.5568C130.997 93.5559 131.045 93.5646 131.09 93.5824C131.135 93.6001 131.176 93.6266 131.211 93.6602C131.246 93.6938 131.274 93.734 131.293 93.7784C131.312 93.8228 131.323 93.8706 131.324 93.919C131.324 93.9674 131.316 94.0155 131.298 94.0605C131.28 94.1056 131.254 94.1467 131.22 94.1815C131.187 94.2163 131.146 94.2442 131.102 94.2635C129.494 94.9485 128.496 96.3215 128.496 97.8503C128.496 99.8877 130.286 101.6 132.662 101.834C132.759 101.839 132.851 101.882 132.916 101.955C132.982 102.027 133.016 102.122 133.011 102.22C133.006 102.317 132.963 102.409 132.89 102.474C132.818 102.54 132.722 102.574 132.625 102.569L132.619 102.565ZM154.728 105.358L155.219 98.4133C155.226 98.3158 155.271 98.2251 155.345 98.161C155.418 98.0969 155.515 98.0647 155.612 98.0715C155.71 98.0784 155.8 98.1236 155.864 98.1974C155.929 98.2711 155.961 98.3673 155.954 98.4648L155.463 105.409C155.455 105.522 155.488 105.634 155.558 105.724C155.627 105.813 155.728 105.874 155.839 105.894L157.719 106.234C157.817 106.242 157.907 106.289 157.97 106.364C158.033 106.439 158.063 106.536 158.054 106.634C158.046 106.731 157.999 106.821 157.924 106.884C157.849 106.947 157.752 106.977 157.655 106.969C157.633 106.971 157.61 106.971 157.589 106.969L155.71 106.629C155.417 106.578 155.154 106.419 154.972 106.183C154.79 105.948 154.703 105.653 154.728 105.356V105.358Z" fill="#FBC3A8"/>
<path d="M140.297 91.1884C140.408 88.1426 141.192 85.2967 142.533 83.1034C144.041 80.6427 146.075 79.2814 148.266 79.2814C150.456 79.2814 152.489 80.6368 153.999 83.1034C154.769 84.393 155.339 85.7922 155.689 87.2533C156.04 85.7924 156.61 84.3932 157.381 83.1034C158.889 80.6427 160.924 79.2814 163.114 79.2814C165.304 79.2814 167.336 80.6368 168.847 83.1034C170.195 85.3084 170.978 88.1676 171.086 91.2296L176.304 90.7372C175.959 90.2652 175.666 89.757 175.431 89.2216C175.346 89.0334 175.264 88.8379 175.186 88.6336C175.146 88.5322 175.108 88.4307 175.071 88.3278C174.996 88.122 174.924 87.9103 174.858 87.6957C174.824 87.5869 174.79 87.4782 174.758 87.3679C174.693 87.1474 174.633 86.9269 174.574 86.6961C174.515 86.4653 174.461 86.236 174.409 86.0008C174.227 85.1805 174.082 84.3235 173.968 83.4592C173.951 83.3357 173.935 83.2122 173.92 83.0887C173.889 82.8403 173.86 82.5933 173.833 82.3449C173.767 81.726 173.716 81.1101 173.673 80.5059C173.657 80.2634 173.642 80.0238 173.629 79.7857C173.61 79.4299 173.594 79.0805 173.58 78.7375C173.572 78.5097 173.564 78.2862 173.558 78.0657C173.552 77.8452 173.548 77.6247 173.545 77.4189C173.542 77.2131 173.545 77.0015 173.536 76.8001C173.536 76.0989 173.536 75.4639 173.547 74.9244C173.547 74.7774 173.547 74.6304 173.557 74.4834C173.58 73.5881 173.613 73.0516 173.613 73.0516C162.882 77.5468 158.788 71.7109 158.788 71.7109C145.436 78.4979 135.485 73.2985 135.485 73.2985C133.721 78.3994 133.241 83.3769 133.133 86.2345C133.116 87.5909 133.116 89.0226 133.133 90.5299C133.169 90.5269 133.205 90.5269 133.241 90.5299L140.297 91.1884Z" fill="#FBC3A8"/>
<path d="M176.026 55.6807C176.419 55.838 179.932 54.2196 181.53 51.9234C183.185 49.545 182.755 46.6491 181.283 45.8847C179.812 45.1203 177.111 46.4065 176.203 49.1569C175.224 52.1307 175.796 55.5896 176.026 55.6807Z" fill="#5C1E14"/>
<path d="M148.263 98.4474C149.24 98.4474 150.033 96.9442 150.033 95.0899C150.033 93.2356 149.24 91.7324 148.263 91.7324C147.285 91.7324 146.493 93.2356 146.493 95.0899C146.493 96.9442 147.285 98.4474 148.263 98.4474Z" fill="#2B100E"/>
<path d="M163.596 98.4474C164.574 98.4474 165.366 96.9442 165.366 95.0899C165.366 93.2356 164.574 91.7324 163.596 91.7324C162.619 91.7324 161.826 93.2356 161.826 95.0899C161.826 96.9442 162.619 98.4474 163.596 98.4474Z" fill="#2B100E"/>
<path d="M164.14 111.892H164.183C164.233 111.892 169.235 111.25 170.858 105.151C170.883 105.056 170.87 104.956 170.82 104.871C170.771 104.787 170.691 104.726 170.596 104.701C170.502 104.676 170.402 104.689 170.317 104.738C170.233 104.787 170.172 104.868 170.147 104.962C168.658 110.56 164.284 111.136 164.099 111.163C164.051 111.166 164.004 111.178 163.96 111.199C163.916 111.22 163.877 111.249 163.845 111.285C163.813 111.321 163.788 111.363 163.772 111.409C163.756 111.454 163.749 111.503 163.752 111.551C163.755 111.599 163.767 111.646 163.788 111.69C163.809 111.734 163.838 111.773 163.874 111.805C163.91 111.837 163.952 111.862 163.998 111.878C164.044 111.894 164.092 111.901 164.14 111.898V111.892Z" fill="#EB7360"/>
<path d="M157.653 106.962C157.75 106.97 157.847 106.94 157.922 106.877C157.997 106.814 158.044 106.724 158.053 106.626C158.061 106.529 158.031 106.432 157.968 106.357C157.905 106.282 157.815 106.235 157.718 106.227L155.838 105.887C155.726 105.867 155.626 105.806 155.556 105.717C155.487 105.627 155.453 105.515 155.461 105.402L155.952 98.4576C155.956 98.4093 155.949 98.3609 155.934 98.315C155.919 98.2691 155.895 98.2267 155.863 98.1902C155.799 98.1165 155.708 98.0712 155.61 98.0644C155.513 98.0576 155.417 98.0897 155.343 98.1538C155.269 98.2179 155.224 98.3087 155.217 98.4062L154.726 105.35C154.705 105.645 154.793 105.936 154.974 106.169C155.156 106.401 155.416 106.559 155.707 106.61L157.585 106.95C157.607 106.956 157.63 106.96 157.653 106.962Z" fill="#EB7360"/>
<path d="M132.656 101.833C130.28 101.599 128.49 99.8867 128.49 97.8492C128.49 96.3219 129.488 94.9475 131.096 94.2624C131.186 94.2234 131.256 94.1504 131.292 94.0595C131.328 93.9685 131.326 93.867 131.287 93.7773C131.248 93.6877 131.175 93.6172 131.084 93.5813C130.993 93.5455 130.892 93.5473 130.802 93.5862C128.919 94.3889 127.749 96.022 127.749 97.8492C127.749 100.266 129.824 102.293 132.578 102.564H132.613C132.71 102.568 132.806 102.534 132.878 102.469C132.951 102.403 132.994 102.312 132.999 102.214C133.004 102.117 132.97 102.022 132.904 101.949C132.839 101.877 132.747 101.833 132.65 101.829L132.656 101.833Z" fill="#EB7360"/>
<path d="M133.119 91.6925L140.286 92.3686C140.351 95.5424 141.142 98.5206 142.533 100.792C144.041 103.253 146.075 104.614 148.266 104.614C150.456 104.614 152.489 103.258 153.999 100.792C154.769 99.5027 155.339 98.1039 155.689 96.6434C156.04 98.1038 156.61 99.5025 157.381 100.792C158.889 103.253 160.924 104.614 163.114 104.614C165.304 104.614 167.336 103.258 168.847 100.792C170.232 98.5309 171.021 95.5703 171.092 92.4127L175.014 92.0423C175.618 91.7609 176.254 91.5517 176.907 91.419C176.848 91.3646 176.791 91.3073 176.734 91.2485L176.651 91.1588L176.576 91.0736C176.539 91.0324 176.503 90.9898 176.467 90.9457L176.429 90.8987C176.388 90.8477 176.347 90.7948 176.306 90.7399L171.087 91.2323C170.98 88.1703 170.196 85.3068 168.848 83.1062C167.34 80.6454 165.306 79.2842 163.115 79.2842C160.925 79.2842 158.892 80.6395 157.382 83.1062C156.612 84.3959 156.041 85.7951 155.69 87.256C155.341 85.795 154.771 84.3957 154 83.1062C152.492 80.6454 150.457 79.2842 148.267 79.2842C146.077 79.2842 144.045 80.6395 142.534 83.1062C141.193 85.2965 140.41 88.1424 140.298 91.1912L133.232 90.5238C133.196 90.5208 133.16 90.5208 133.125 90.5238C132.988 90.5359 132.86 90.5954 132.762 90.692C132.665 90.7887 132.604 90.9164 132.591 91.053C132.584 91.1247 132.591 91.197 132.611 91.2661C132.643 91.3799 132.709 91.4815 132.799 91.5575C132.89 91.6336 133.001 91.6806 133.119 91.6925ZM163.107 80.4661C166.86 80.4661 169.913 85.6111 169.913 91.9497C169.913 98.2883 166.86 103.432 163.107 103.432C159.354 103.432 156.299 98.2869 156.299 91.9497C156.299 85.6125 159.348 80.4661 163.108 80.4661H163.107ZM141.462 91.5528C141.587 85.4053 144.589 80.4661 148.263 80.4661C152.017 80.4661 155.07 85.6111 155.07 91.9497C155.07 98.2883 152.017 103.432 148.263 103.432C144.546 103.432 141.517 98.3795 141.459 92.1305C141.501 92.0583 141.527 91.9782 141.536 91.8953C141.547 91.7763 141.521 91.6569 141.462 91.5528Z" fill="white"/>
<path d="M158.776 71.7229C158.776 71.7229 162.876 77.5588 173.607 73.0591C173.607 73.0591 173.575 73.5957 173.551 74.4909C173.551 74.6276 173.551 74.7746 173.541 74.9319C173.531 75.4714 173.525 76.1079 173.531 76.8076C173.531 77.009 173.531 77.2148 173.539 77.4265C173.548 77.6382 173.539 77.8528 173.553 78.0733C173.566 78.2938 173.566 78.5143 173.575 78.7451C173.587 79.0881 173.604 79.4374 173.623 79.7932C173.636 80.0313 173.651 80.2709 173.667 80.5135C173.71 81.1177 173.761 81.7336 173.827 82.3524C173.854 82.6009 173.883 82.8478 173.914 83.0963C173.929 83.2198 173.945 83.3432 173.963 83.4667C174.079 84.3311 174.224 85.1881 174.404 86.0083C174.455 86.2435 174.511 86.4758 174.568 86.7037C174.626 86.9315 174.687 87.1549 174.752 87.3754C174.784 87.4857 174.818 87.5945 174.852 87.7032C174.92 87.9179 174.99 88.1295 175.065 88.3353C175.102 88.4382 175.14 88.5397 175.18 88.6411C175.258 88.841 175.34 89.0365 175.425 89.2291C175.66 89.7645 175.953 90.2727 176.299 90.7447C176.34 90.7996 176.381 90.8525 176.422 90.9034L176.46 90.9505C176.496 90.9946 176.532 91.0372 176.569 91.0784L176.644 91.1636L176.728 91.2533C176.785 91.3121 176.842 91.3694 176.901 91.4238C177.482 91.3061 178.073 91.247 178.665 91.2474C178.777 91.2474 178.887 91.2474 178.997 91.2474H179.031C179.124 91.2474 179.218 91.2562 179.311 91.2636H179.343C179.876 91.3034 180.404 91.392 180.92 91.5282C181.927 90.3419 183.334 87.6268 184.919 81.5043C190.846 58.612 173.772 58.6119 173.772 58.6119C173.772 58.6119 162.517 37.1353 141.311 53.8815C141.311 53.8815 124.818 46.4506 121.7 64.7198C119.032 80.3562 129.917 87.0638 133.111 88.6646C133.111 88.6646 133.072 87.7473 133.133 86.2215C133.248 83.3712 133.721 78.3937 135.485 73.2855C135.485 73.2987 145.436 78.4981 158.776 71.7229Z" fill="#5C1E14"/>
<path d="M180.49 101.83C180.534 101.83 180.578 101.822 180.619 101.806C182.43 101.124 183.602 99.5705 183.602 97.8491C183.602 96.3674 182.745 95.0076 181.311 94.2109C181.269 94.1874 181.223 94.1725 181.175 94.167C181.127 94.1614 181.078 94.1654 181.032 94.1787C180.986 94.1919 180.942 94.2141 180.904 94.2441C180.867 94.2741 180.835 94.3113 180.812 94.3535C180.788 94.3956 180.773 94.442 180.768 94.49C180.762 94.5379 180.766 94.5865 180.779 94.6329C180.793 94.6793 180.815 94.7227 180.845 94.7605C180.875 94.7983 180.912 94.8298 180.954 94.8533C182.151 95.5177 182.865 96.6378 182.865 97.8491C182.865 99.2618 181.88 100.545 180.366 101.118C180.286 101.149 180.218 101.206 180.176 101.281C180.133 101.356 180.119 101.443 180.134 101.528C180.149 101.613 180.194 101.689 180.26 101.745C180.326 101.8 180.409 101.83 180.496 101.83H180.49Z" fill="#EB7360"/>
<path d="M129.268 247.598H71.3084C71.211 247.598 71.1175 247.637 71.0486 247.706C70.9796 247.775 70.9409 247.868 70.9409 247.966C70.9409 248.063 70.9796 248.157 71.0486 248.226C71.1175 248.294 71.211 248.333 71.3084 248.333H129.268C129.365 248.333 129.459 248.294 129.527 248.226C129.596 248.157 129.635 248.063 129.635 247.966C129.635 247.868 129.596 247.775 129.527 247.706C129.459 247.637 129.365 247.598 129.268 247.598Z" fill="#1F3966"/>
<path d="M140.433 247.966C140.433 248.014 140.443 248.062 140.461 248.107C140.479 248.151 140.507 248.192 140.541 248.226C140.575 248.26 140.615 248.287 140.66 248.306C140.705 248.324 140.753 248.333 140.801 248.333H239.09C239.187 248.333 239.281 248.294 239.349 248.226C239.418 248.157 239.457 248.063 239.457 247.966C239.457 247.868 239.418 247.775 239.349 247.706C239.281 247.637 239.187 247.598 239.09 247.598H140.801C140.753 247.598 140.705 247.607 140.66 247.626C140.615 247.644 140.575 247.671 140.541 247.705C140.507 247.74 140.479 247.78 140.461 247.825C140.443 247.869 140.433 247.917 140.433 247.966Z" fill="#1F3966"/>
<path d="M143.031 129.876L142.987 129.895C139.862 131.389 137.364 134.199 135.562 138.246C134.823 139.94 134.229 141.693 133.786 143.487C133.253 145.623 132.86 147.791 132.61 149.978C131.969 155.433 132.115 160.562 132.265 163.179C132.531 163.034 132.822 162.942 133.123 162.91L133.607 162.857L133.72 162.847C133.544 159.454 133.411 152.263 134.836 145.487C136.096 139.493 138.574 133.821 143.316 131.375L143.334 131.366L144.777 130.778L144.805 129.336C144.805 129.336 143.716 129.528 143.031 129.876Z" fill="#1F3966"/>
<path d="M144.001 129.52L143.362 129.58C143.362 129.58 143.362 129.632 143.362 129.727C143.571 129.648 143.785 129.578 144.001 129.52Z" fill="#75B2E1"/>
<path d="M171.043 130.342C170.566 130.244 170.078 130.202 169.591 130.215C169.565 130.217 169.538 130.217 169.512 130.215L169.542 130.92C154.969 139.401 144.783 130.773 144.783 130.773L143.34 131.361C143.34 131.59 143.34 131.837 143.35 132.106C143.712 140.508 145.89 159.787 157.731 175.244L157.832 175.374L157.924 175.243V175.227C159.158 173.297 172.121 152.501 171.043 130.342Z" fill="#75B2E1"/>
<path d="M144.81 129.445L144.783 130.768C144.783 130.768 144.794 130.263 144.81 129.445Z" fill="#75B2E1"/>
<path fill-rule="evenodd" clip-rule="evenodd" d="M232.848 80.1152C228.586 80.1151 224.427 81.4213 220.93 83.858C217.434 86.2947 214.768 89.7447 213.293 93.743C211.817 97.7413 211.603 102.096 212.679 106.22C213.755 110.343 216.069 114.038 219.309 116.806L217.335 121.747C217.239 121.988 217.217 122.252 217.272 122.506C217.327 122.759 217.457 122.99 217.645 123.169C217.834 123.348 218.071 123.466 218.327 123.508C218.583 123.551 218.846 123.515 219.081 123.407L225.479 120.467C228.336 121.544 231.395 121.981 234.439 121.745C237.484 121.51 240.44 120.609 243.097 119.106C245.755 117.602 248.05 115.533 249.82 113.045C251.59 110.557 252.792 107.71 253.341 104.706C253.889 101.702 253.771 98.6147 252.995 95.6615C252.219 92.7083 250.803 89.9617 248.848 87.6159C246.893 85.2701 244.447 83.3824 241.682 82.0863C238.917 80.7902 235.901 80.1173 232.848 80.1152Z" fill="#FFD682"/>
<path fill-rule="evenodd" clip-rule="evenodd" d="M233.398 100.488C237.277 94.6593 231.441 94.6843 233.911 90.974C236.292 87.396 236.545 85.5629 241.077 88.5823C241.552 88.9792 246.728 91.0666 238.284 103.744C229.841 116.421 225.92 112.457 225.37 112.171C220.827 109.146 222.43 108.214 224.813 104.636C227.287 100.924 229.519 106.316 233.398 100.488Z" fill="#F8C378"/>
<path fill-rule="evenodd" clip-rule="evenodd" d="M81.2908 209.841L79.762 216.568C79.7209 216.748 79.7281 216.936 79.7828 217.113C79.8374 217.289 79.9377 217.449 80.0734 217.574C80.2091 217.7 80.3756 217.788 80.556 217.829C80.7364 217.87 80.9244 217.863 81.1011 217.808L87.6926 215.769C87.8693 215.715 88.0285 215.614 88.1542 215.479C88.2799 215.343 88.3676 215.176 88.4086 214.996C88.4496 214.816 88.4423 214.628 88.3876 214.451C88.3329 214.274 88.2326 214.115 88.0969 213.989L83.0357 209.3C82.8997 209.174 82.7331 209.087 82.5526 209.046C82.3721 209.005 82.184 209.013 82.0073 209.067C81.8305 209.122 81.6713 209.222 81.5455 209.358C81.4198 209.494 81.3319 209.66 81.2908 209.841Z" fill="#D9E3F3"/>
</svg>
