<svg width="25" height="25" viewBox="0 0 25 25" fill="none" xmlns="http://www.w3.org/2000/svg">
<path d="M22.164 1.85607C20.9679 0.659192 19.3766 0 17.6842 0C15.9916 0 14.4009 0.659192 13.2042 1.85607L7.53003 7.53003L1.85571 13.2047C0.659191 14.4016 0 15.9929 0 17.6849C0 19.377 0.659191 20.9682 1.85571 22.1644C3.05185 23.3613 4.64311 24.0204 6.33553 24.0204C8.02795 24.0204 9.61884 23.3613 10.8154 22.1644L16.4897 16.4904L22.164 10.8157C23.3605 9.61884 24.0195 8.02759 24.0195 6.33553C24.0195 4.64348 23.3605 3.05222 22.164 1.85607ZM9.62086 20.9699C8.74304 21.8475 7.57621 22.3311 6.33553 22.3311C5.0943 22.3311 3.92784 21.8477 3.0502 20.9699C2.17256 20.0921 1.68949 18.9258 1.68949 17.6851C1.68949 16.4444 2.17293 15.277 3.0502 14.3994L8.12728 9.32196L14.6979 15.8934L9.62086 20.9699ZM20.9695 9.62123L15.8924 14.6987L9.32178 8.12728L14.3989 3.05057C15.2765 2.17293 16.4433 1.6893 17.6842 1.6893C18.9252 1.6893 20.0917 2.17275 20.9693 3.05057C21.847 3.92839 22.33 5.09467 22.33 6.33535C22.33 7.57603 21.8468 8.74341 20.9695 9.62123Z" fill="#EFA315"/>
</svg>
